<?xml version="1.0" encoding="UTF-8" standalone="no" ?>
<!DOCTYPE svg PUBLIC "-//W3C//DTD SVG 1.1//EN" "http://www.w3.org/Graphics/SVG/1.1/DTD/svg11.dtd">
<svg xmlns="http://www.w3.org/2000/svg" xmlns:xlink="http://www.w3.org/1999/xlink" version="1.1" width="342.1726166572" height="395.5084253155" viewBox="59.4144661217 38.18847480984999 342.1726166572 395.5084253155" xml:space="preserve">
<desc>Created with Fabric.js 5.3.0</desc>
<defs>
</defs>
<g transform="matrix(1 0 0 1 230.5007744503 235.9426874676)" id="Cx-Flb-EXmjKDkLFfqK8G"  >
<g style=""   >
		<g transform="matrix(0.5266421121 0 0 0.5266421121 0 0)" id="yuz8-eN95h60N-EBSIVHI"  >
<path style="stroke: none; stroke-width: 1; stroke-dasharray: none; stroke-linecap: butt; stroke-dashoffset: 0; stroke-linejoin: miter; stroke-miterlimit: 4; fill: rgb(41,12,23); fill-rule: nonzero; opacity: 1;"  transform=" translate(-400.0011352624, -399.9996527105)" d="M 666.145 719.137 C 660.385 735.8159999999999 649.912 746.5409999999999 634.7239999999999 751.313 C 629.0899999999999 753.084 619.497 754.091 605.9449999999999 754.333 C 594.919 754.536 583.8989999999999 754.5219999999999 572.8829999999999 754.289 C 572.2189999999999 754.28 571.593 754.601 571.213 755.146 C 559.074 772.759 544.235 774.0509999999999 522.048 774.588 C 508.118 774.927 492.413 774.728 474.931 773.9929999999999 C 463.63399999999996 773.5089999999999 453.712 770.5279999999999 445.16499999999996 765.049 C 444.768 764.788 444.337 764.662 443.873 764.6709999999999 L 389.94599999999997 764.8019999999999 C 389.75699999999995 764.8019999999999 389.57399999999996 764.8629999999999 389.42299999999994 764.9759999999999 C 382.3949999999999 769.7869999999999 375.43999999999994 772.5599999999998 368.55799999999994 773.2959999999999 C 352.23799999999994 775.0189999999999 333.24499999999995 775.435 311.58199999999994 774.545 C 292.00899999999996 773.746 275.2819999999999 773.064 263.4339999999999 756.0319999999999 C 262.6039999999999 754.834 261.2109999999999 754.1569999999999 259.75999999999993 754.246 C 243.65699999999993 755.233 224.27299999999994 755.611 211.23399999999992 743.835 C 210.88899999999992 743.518 210.43699999999993 743.346 209.97099999999992 743.356 C 182.41199999999992 743.6659999999999 156.17899999999992 738.163 131.2729999999999 726.847 C 93.22099999999992 705.696 74.68899999999991 672.866 75.6759999999999 628.358 C 76.4889999999999 591.637 93.0849999999999 560.434 122.8809999999999 539.8589999999999 C 141.9599999999999 526.675 163.3629999999999 520.155 186.30399999999992 515.828 C 186.84599999999992 515.731 187.19899999999993 515.417 187.36399999999992 514.884 C 194.27599999999993 491.333 203.8149999999999 468.899 215.98299999999992 447.584 C 216.26299999999992 447.104 216.1589999999999 446.492 215.7359999999999 446.132 C 193.11399999999992 426.288 176.2419999999999 402.36400000000003 165.11899999999991 374.36 C 164.9449999999999 373.944 164.6349999999999 373.769 164.1899999999999 373.837 C 151.54799999999992 375.77299999999997 138.90599999999992 377.704 126.26399999999991 379.63 C 121.22599999999991 380.385 116.20199999999991 376.95799999999997 116.07099999999991 371.992 C 115.91099999999992 366.14000000000004 120.76099999999991 364.209 125.39299999999992 362.031 C 140.76499999999993 354.81 151.44199999999992 349.984 157.42399999999992 347.555 C 157.88899999999992 347.361 158.08699999999993 347.01300000000003 158.01899999999992 346.51 L 156.6829999999999 337.783 C 156.6239999999999 337.373 156.2889999999999 337.055 155.86999999999992 337.01300000000003 C 145.79299999999992 336.035 135.73999999999992 335.13500000000005 125.71199999999992 334.312 C 123.16599999999991 334.099 120.68799999999992 333.625 118.27799999999992 332.889 C 111.59899999999992 330.856 109.02899999999993 325.266 113.61699999999992 319.313 C 114.71099999999991 317.871 117.30999999999992 316.811 121.41399999999992 316.133 C 132.30399999999992 314.323 143.2469999999999 312.93899999999996 154.24399999999991 311.97999999999996 C 154.72899999999993 311.94199999999995 155.10199999999992 311.537 155.1009999999999 311.051 L 155.1589999999999 305.33 C 155.1589999999999 304.72999999999996 154.86899999999991 304.36199999999997 154.2879999999999 304.227 C 143.93999999999988 301.85499999999996 133.7569999999999 299.034 123.7379999999999 295.762 C 116.7829999999999 293.497 112.1219999999999 289.257 117.1019999999999 281.881 C 121.0799999999999 275.986 148.9589999999999 278.67199999999997 156.0159999999999 279.253 C 156.6989999999999 279.308 157.3139999999999 278.83099999999996 157.4389999999999 278.149 C 160.4689999999999 261.18 165.50699999999992 244.84 172.55399999999992 229.13 C 172.9319999999999 228.268 173.0229999999999 227.378 172.82999999999993 226.458 C 160.56099999999992 169.917 165.29399999999993 107.03099999999999 180.26399999999992 51.739000000000004 C 181.9579999999999 45.495000000000005 183.89399999999992 40.888000000000005 186.07199999999992 37.916000000000004 C 193.37599999999992 27.941000000000003 205.80499999999992 22.394000000000005 217.91399999999993 26.213000000000005 C 221.59199999999993 27.365000000000006 226.13199999999992 29.393000000000004 231.53399999999993 32.297000000000004 C 268.23099999999994 51.99600000000001 302.27099999999996 75.78 333.6529999999999 103.648 C 334.46199999999993 104.368 335.5889999999999 104.606 336.6149999999999 104.27199999999999 C 387.84199999999987 87.93699999999998 447.3439999999999 86.81899999999999 498.2949999999999 104.53299999999999 C 499.4069999999999 104.91799999999999 500.6349999999999 104.67299999999999 501.5039999999999 103.89399999999999 C 528.4819999999999 79.588 557.8949999999999 58.18499999999999 589.742 39.687 C 597.447 35.214999999999996 605.39 31.217 613.569 27.692999999999998 C 627.799 21.551 643.175 26.386 650.958 39.44 C 652.7579999999999 42.449999999999996 654.496 47.266 656.1709999999999 53.887 C 670.5849999999999 110.902 672.8399999999999 168.547 662.9369999999999 226.82 C 662.8609999999999 227.284 662.9269999999999 227.759 663.1259999999999 228.185 C 670.6379999999998 244.215 675.8649999999999 260.971 678.8079999999999 278.453 C 678.9049999999999 279.04299999999995 679.2479999999999 279.33399999999995 679.8389999999998 279.32399999999996 C 686.4309999999998 279.29499999999996 693.0229999999998 279.10099999999994 699.6149999999998 278.74299999999994 C 707.7949999999997 278.30699999999996 712.9589999999998 278.5829999999999 715.1079999999998 279.5709999999999 C 723.9939999999998 283.6369999999999 721.9029999999998 292.71199999999993 713.2199999999998 295.2819999999999 C 702.6689999999998 298.39899999999994 692.1129999999998 301.5159999999999 681.5519999999998 304.6329999999999 C 681.2139999999998 304.73599999999993 680.9759999999998 305.0439999999999 680.9569999999998 305.4029999999999 L 680.6809999999998 311.3709999999999 C 680.6519999999998 311.8839999999999 680.8939999999998 312.1599999999999 681.4069999999998 312.1989999999999 C 692.0069999999998 313.0509999999999 702.5189999999998 314.4249999999999 712.9439999999998 316.3229999999999 C 718.9549999999998 317.4119999999999 727.7249999999998 321.28899999999993 723.0349999999999 328.9989999999999 C 721.7859999999998 331.0409999999999 719.5209999999998 332.3189999999999 716.2399999999999 332.83199999999994 C 704.2269999999999 334.69999999999993 692.18 336.25899999999996 680.0999999999999 337.50699999999995 C 679.5479999999999 337.56499999999994 679.2289999999999 337.86499999999995 679.1419999999999 338.4069999999999 L 677.9219999999999 346.31999999999994 C 677.8249999999999 346.90099999999995 678.0529999999999 347.29799999999994 678.6039999999999 347.5109999999999 C 687.693 350.9959999999999 699.5999999999999 356.3589999999999 714.323 363.59899999999993 C 725.852 369.26199999999994 719.942 381.00899999999996 708.689 379.30999999999995 C 702.707 378.40999999999997 690.108 376.67199999999997 670.8929999999999 374.0969999999999 C 670.3609999999999 374.0199999999999 669.9929999999999 374.2319999999999 669.79 374.73599999999993 C 657.574 404.6859999999999 639.0369999999999 429.9989999999999 614.178 450.67599999999993 C 613.888 450.9269999999999 613.804 451.3349999999999 613.975 451.66299999999995 C 625.581 473.92699999999996 634.53 498.34499999999997 640.822 524.9159999999999 C 651.054 568.1179999999999 650.066 610.386 637.86 651.7189999999999 C 637.715 652.193 637.855 652.5609999999999 638.2810000000001 652.823 C 660.859 667.039 673.013 692.739 666.145 719.137 z M 190.107 229.334 C 181.869 245.809 176.187 263.127 173.061 281.28700000000003 C 172.964 281.81000000000006 173.18200000000002 282.09000000000003 173.714 282.129 C 186.269 283.058 195.799 283.978 202.304 284.88800000000003 C 204.25 285.15900000000005 205.644 286.24300000000005 206.486 288.14000000000004 C 206.67 288.547 206.684 288.963 206.53 289.38900000000007 C 205.756 291.3830000000001 204.468 292.36600000000004 202.668 292.33700000000005 C 184.508 291.95900000000006 167.065 291.47100000000006 150.33800000000002 290.87000000000006 C 142.90400000000002 290.60900000000004 142.80700000000002 291.33000000000004 150.04800000000003 293.0330000000001 C 163.59000000000003 296.2270000000001 178.62300000000002 300.3950000000001 195.14700000000002 305.5350000000001 C 199.02400000000003 306.74000000000007 203.94600000000003 308.49700000000007 203.74300000000002 313.27400000000006 C 203.51100000000002 318.5300000000001 195.96000000000004 319.44500000000005 192.14200000000002 319.79400000000004 C 174.01100000000002 321.47800000000007 155.86100000000002 323.26400000000007 137.692 325.15200000000004 C 137.52800000000002 325.189 137.424 325.35100000000006 137.461 325.516 C 137.48700000000002 325.63100000000003 137.57700000000003 325.72200000000004 137.692 325.747 C 156.01600000000002 327.43100000000004 174.40800000000002 329.062 192.868 330.64 C 197.297 331.032 206.952 332.426 208.201 336.767 C 209.987 342.923 198.647 346.103 194.683 347.396 C 177.849 352.875 161.22899999999998 358.654 144.821 364.733 C 144.59799999999998 364.8 144.472 365.035 144.539 365.257 C 144.60299999999998 365.47 144.82199999999997 365.597 145.039 365.546 C 167.206 361.78 189.315 357.908 211.36599999999999 353.93 C 213.273 353.591 214.89 353.819 216.21599999999998 354.612 C 217.89199999999997 355.622 218.43099999999998 357.8 217.42 359.475 C 217.26999999999998 359.72400000000005 217.08999999999997 359.95300000000003 216.884 360.158 C 213.16699999999997 363.846 202.17499999999998 365.269 196.512 366.40200000000004 L 181.295 369.87200000000007 C 180.801 369.97800000000007 180.646 370.26900000000006 180.82999999999998 370.74300000000005 C 195.16099999999997 406.40400000000005 223.70799999999997 430.95700000000005 250.279 457.21000000000004 C 250.429 457.34600000000006 250.435 457.57700000000006 250.291 457.72400000000005 C 250.18699999999998 457.8310000000001 250.028 457.86800000000005 249.887 457.82000000000005 L 232.942 451.67800000000005 C 232.448 451.5040000000001 232.076 451.64400000000006 231.824 452.09900000000005 L 223.53300000000002 467.62100000000004 C 194.043 524.931 181.90400000000002 592.464 202.247 654.421 C 212.31400000000002 686.529 230.15900000000002 713.067 255.782 734.0340000000001 C 256.324 734.4790000000002 256.61 734.3490000000002 256.639 733.642 C 257.084 717.922 261.421 703.3870000000001 269.649 690.038 C 269.89300000000003 689.644 269.991 689.176 269.925 688.717 L 259.38300000000004 606.548 C 258.396 595.358 257.36500000000007 583.19 256.29 570.045 C 256.232 569.358 256.30400000000003 568.8199999999999 256.50800000000004 568.433 C 256.944 567.63 257.67 567.441 258.68600000000004 567.867 C 259.17 568.078 259.526 568.5029999999999 259.64400000000006 569.014 C 268.8500000000001 608.383 277.14500000000004 648.051 284.53100000000006 688.02 C 285.01000000000005 690.619 284.7200000000001 694.554 283.52900000000005 696.9639999999999 C 277.12600000000003 709.9159999999999 271.41900000000004 721.967 273.07500000000005 736.545 C 275.74700000000007 748.8969999999999 283.29200000000003 755.721 295.71200000000005 757.0179999999999 C 296.01500000000004 757.0489999999999 296.28600000000006 756.829 296.31800000000004 756.526 C 296.333 756.385 296.29300000000006 756.2439999999999 296.206 756.132 C 293.534 752.7249999999999 291.81100000000004 748.751 291.03700000000003 744.2109999999999 C 290.52900000000005 739.2739999999999 292.01000000000005 731.2159999999999 296.468 728.3699999999999 C 299.43 726.4529999999999 302.653 728.6749999999998 302.683 731.9709999999999 C 302.693 732.4529999999999 302.556 732.9239999999999 302.291 733.3209999999999 C 300.975 735.3149999999999 300.113 737.8749999999999 299.706 741.002 C 299.716 746.529 302.06800000000004 751.045 306.76300000000003 754.549 C 311.83000000000004 758.3389999999999 318.91600000000005 757.555 325.01500000000004 757.148 C 325.51800000000003 757.119 325.77000000000004 756.8480000000001 325.77000000000004 756.335 L 325.814 741.336 L 326.04600000000005 733.51 C 326.10400000000004 731.578 327.7180000000001 730.06 329.65000000000003 730.1179999999999 C 329.82000000000005 730.1229999999999 329.98800000000006 730.141 330.15500000000003 730.17 C 335.382 731.0989999999999 334.148 737.314 334.163 741.1759999999999 L 334.134 756.262 C 334.134 756.785 334.39500000000004 757.0699999999999 334.918 757.1189999999999 C 341.815 757.685 349.16200000000003 757.9179999999999 354.68 753.5619999999999 C 359.075 750.0969999999999 361.122 745.4599999999999 360.822 739.6519999999999 L 357.889 731.8109999999999 C 357.724 731.3559999999999 357.73900000000003 730.911 357.933 730.4749999999999 C 358.775 728.6309999999999 360.474 726.9469999999999 362.667 727.4259999999999 C 366.965 728.3549999999999 369.303 736.632 369.767 740.6249999999999 C 369.96999999999997 746.9849999999999 367.82099999999997 750.9629999999999 364.801 755.7689999999999 C 364.423 756.3689999999999 364.58799999999997 756.6399999999999 365.295 756.5819999999999 C 385.841 754.9269999999999 389.776 738.6209999999999 386.915 721.4439999999998 C 381.73600000000005 690.4489999999998 376.43600000000004 659.4729999999998 371.016 628.5159999999998 C 368.75100000000003 615.6029999999998 366.98400000000004 602.6319999999998 365.716 589.6019999999999 L 365.73 584.2439999999999 C 365.72900000000004 583.4499999999999 366.372 582.8059999999999 367.165 582.8039999999999 C 367.80400000000003 582.8029999999999 368.367 583.2239999999998 368.546 583.8369999999999 C 376.61899999999997 610.7959999999998 383.84 637.8129999999999 390.21 664.8879999999999 C 394.092 680.386 397.959 697.752 401.811 716.9859999999999 C 403.883 727.3439999999998 403.452 737.4349999999998 400.519 747.2599999999999 C 400.325 747.8799999999999 400.558 748.1889999999999 401.216 748.1889999999999 L 433.494 748.2619999999998 C 433.83900000000006 748.2729999999998 434.127 748.0019999999998 434.13800000000003 747.6579999999998 C 434.14000000000004 747.5819999999998 434.129 747.5059999999997 434.10400000000004 747.4349999999998 C 429.05100000000004 731.7529999999998 433.059 715.8979999999998 436.93500000000006 699.1559999999998 C 441.88200000000006 677.9079999999998 446.85200000000003 656.8539999999998 451.84700000000004 635.9939999999998 L 466.91900000000004 583.5479999999998 C 467.083 582.9029999999998 467.73900000000003 582.5129999999998 468.384 582.6769999999998 C 468.964 582.8239999999998 469.34700000000004 583.3739999999998 469.286 583.9689999999998 L 467.965 602.3369999999999 C 461.441 642.7119999999999 454.66499999999996 683.0879999999999 447.637 723.4629999999999 C 446.853 727.9789999999998 446.838 737.1259999999999 448.711 742.0339999999999 C 452.418 751.7909999999998 460.075 756.6559999999998 471.682 756.6269999999998 C 472.20500000000004 756.6269999999998 472.31100000000004 756.4239999999999 472.00100000000003 756.0169999999998 C 468.39000000000004 751.2349999999998 466.677 745.8819999999998 466.86100000000005 739.9579999999999 C 467.3550000000001 736.2799999999999 468.511 733.0179999999998 470.3310000000001 730.1719999999999 C 472.93000000000006 726.1209999999999 478.09900000000005 726.8319999999999 478.7530000000001 731.6239999999999 C 478.8110000000001 732.079 478.7000000000001 732.4859999999999 478.4190000000001 732.8439999999999 C 476.5410000000001 735.1869999999999 475.6170000000001 738.362 475.6460000000001 742.3689999999999 C 476.12000000000006 749.0289999999999 480.0210000000001 753.8829999999999 487.34900000000005 756.9319999999999 C 489.24600000000004 757.7159999999999 493.79600000000005 757.6969999999999 500.99800000000005 756.8739999999999 C 501.47200000000004 756.8259999999999 501.71000000000004 756.564 501.71000000000004 756.0899999999999 L 501.73900000000003 742.4849999999999 C 501.66600000000005 739.1449999999999 501.057 733.0759999999999 503.68500000000006 730.9269999999999 C 507.0830000000001 728.1539999999999 510.2920000000001 731.5799999999999 510.7560000000001 735.1669999999999 L 510.4800000000001 756.2939999999999 C 510.4800000000001 756.8839999999999 510.7700000000001 757.1889999999999 511.35100000000006 757.2089999999998 C 516.869 757.3829999999998 522.633 758.1089999999998 527.4390000000001 755.5249999999999 C 533.479 752.2729999999999 536.5380000000001 747.0939999999998 536.6160000000001 739.9889999999999 L 533.5520000000001 732.6419999999999 C 532.9500000000002 731.1949999999999 533.4920000000002 729.5239999999999 534.8300000000002 728.707 C 541.2480000000002 724.801 544.4130000000001 734.936 545.0810000000001 740.134 C 545.1290000000001 745.41 543.4690000000002 750.671 540.1010000000001 755.917 C 539.7430000000002 756.469 539.8930000000001 756.701 540.5510000000002 756.614 C 550.7830000000001 755.259 557.3840000000001 749.9350000000001 560.3560000000001 740.642 C 561.6480000000001 736.605 561.2420000000001 731.8430000000001 560.9950000000001 727.5010000000001 C 559.6590000000001 717.0900000000001 556.0580000000001 709.8740000000001 551.0630000000001 699.2310000000001 C 549.7420000000001 696.3850000000001 548.7690000000001 692.3340000000001 549.2920000000001 689.6910000000001 C 554.5000000000001 662.9840000000002 562.6460000000002 624.8640000000001 573.7290000000002 575.3320000000001 C 574.2610000000002 572.9700000000001 574.9580000000002 570.7050000000002 575.8200000000002 568.5370000000001 C 576.6720000000001 568.0630000000001 577.3690000000001 568.1210000000001 577.9110000000002 568.7110000000001 C 578.0710000000001 568.8900000000001 578.1680000000001 569.1240000000001 578.1870000000001 569.3790000000001 C 578.2600000000001 570.3950000000001 578.4920000000001 572.0360000000002 578.3900000000001 572.9940000000001 C 574.1110000000001 611.5010000000001 569.1700000000001 649.9600000000002 563.565 688.3700000000001 C 563.49 688.8390000000002 563.5880000000001 689.3180000000001 563.841 689.7200000000001 C 570.491 700.4450000000002 574.813 712.0520000000001 576.807 724.5390000000001 C 576.904 725.1680000000001 577.1700000000001 725.2550000000001 577.606 724.8000000000001 C 647.273 652.113 644.035 541.8340000000001 598.616 457.26900000000006 C 598.183 456.4750000000001 597.261 456.09200000000004 596.409 456.35400000000004 L 584.474 459.92600000000004 C 584.2090000000001 460.01800000000003 583.9190000000001 459.87800000000004 583.827 459.61300000000006 C 583.76 459.4200000000001 583.814 459.2060000000001 583.966 459.0690000000001 C 610.712 432.86000000000007 640.565 406.88400000000007 653.996 370.70000000000005 C 654.1899999999999 370.19700000000006 654.025 369.88200000000006 653.502 369.75600000000003 L 648.405 368.478 C 640.535 366.784 632.9169999999999 365.003 625.5509999999999 363.135 C 623.6729999999999 362.661 622.0129999999999 361.85699999999997 620.5709999999999 360.72499999999997 C 620.1929999999999 360.42499999999995 619.9469999999999 360.03799999999995 619.8299999999999 359.563 C 618.843 355.236 621.689 353.61 625.5219999999999 354.234 C 646.5369999999999 357.632 667.4849999999999 361.416 688.3649999999999 365.589 C 689.6329999999999 365.841 690.4749999999999 365.928 690.8909999999998 365.85 C 692.2269999999999 365.579 692.2459999999999 365.201 690.9489999999998 364.71700000000004 C 675.7319999999999 359.02500000000003 660.4809999999999 353.69100000000003 645.1959999999998 348.71600000000007 C 641.0139999999998 347.36600000000004 625.6519999999998 343.5180000000001 628.2799999999997 336.54800000000006 C 629.8629999999997 332.35200000000003 639.2569999999997 330.85600000000005 644.0629999999998 330.47900000000004 C 659.8609999999998 329.24000000000007 675.6539999999998 327.89000000000004 691.4419999999998 326.42800000000005 C 693.5719999999998 326.23400000000004 695.2559999999997 326.03100000000006 696.4949999999998 325.81800000000004 C 698.6249999999998 325.44000000000005 698.6149999999998 325.16900000000004 696.4659999999998 325.00500000000005 C 676.9119999999998 323.4560000000001 657.1939999999997 321.38000000000005 637.3119999999998 318.77600000000007 C 634.5919999999998 318.41800000000006 632.8739999999998 316.38500000000005 632.1569999999998 312.67800000000005 C 632.0729999999999 312.23900000000003 632.1619999999998 311.78700000000003 632.4039999999998 311.4150000000001 C 634.0109999999997 308.88900000000007 636.4889999999998 307.1170000000001 639.8379999999997 306.10100000000006 C 654.7159999999998 301.619 669.9669999999998 297.43700000000007 685.5909999999998 293.55600000000004 C 692.8799999999998 291.74600000000004 692.7739999999998 290.95200000000006 685.2719999999998 291.17500000000007 C 670.8779999999998 291.61100000000005 654.5859999999998 292.02700000000004 636.3979999999998 292.4240000000001 C 633.9589999999998 292.4820000000001 632.0999999999998 291.7220000000001 630.8219999999998 290.1440000000001 C 630.4659999999998 289.6900000000001 630.3979999999998 289.07600000000014 630.6479999999998 288.5610000000001 C 631.5969999999998 286.61500000000007 633.4789999999998 285.47300000000007 636.2959999999998 285.13400000000007 C 644.9109999999998 284.10800000000006 653.6719999999998 283.1690000000001 662.5769999999998 282.31700000000006 C 663.1189999999998 282.26900000000006 663.3419999999998 281.98300000000006 663.2449999999998 281.46000000000004 C 659.7599999999998 262.41900000000004 653.9719999999998 244.45800000000003 645.8789999999998 227.57600000000002 C 655.7819999999998 176.24800000000002 653.8069999999998 119.69200000000002 643.3819999999998 68.97400000000002 C 641.4219999999998 59.37600000000002 638.3579999999998 42.82300000000002 627.6279999999998 41.47300000000001 C 619.4819999999999 40.457000000000015 606.8939999999998 48.66000000000001 599.1689999999999 53.14700000000001 C 568.8319999999999 70.81300000000002 540.3339999999998 91.32000000000002 513.6749999999998 114.668 C 513.3649999999999 114.935 513.3289999999998 115.402 513.5959999999999 115.712 C 513.6509999999998 115.776 513.7169999999999 115.831 513.7909999999999 115.873 C 530.324 125.35900000000001 546.1899999999999 136.298 561.3879999999999 148.688 C 527.9479999999999 131.903 496.35299999999995 117.65899999999999 461.12699999999995 111.54599999999999 C 405.544 101.91399999999999 352.47399999999993 110.205 301.91499999999996 136.41899999999998 C 293.76399999999995 140.63899999999998 285.30899999999997 145.01 276.549 149.53099999999998 C 290.527 136.647 305.47799999999995 125.51999999999998 321.40099999999995 116.14999999999998 C 321.77299999999997 115.92899999999997 321.895 115.44699999999997 321.674 115.07499999999997 C 321.632 115.00399999999998 321.57899999999995 114.94099999999997 321.517 114.88699999999997 C 290.096 87.33799999999997 256.061 63.64599999999997 219.41199999999998 43.81199999999997 C 206.95399999999998 37.07499999999997 198.72099999999998 44.40699999999997 195.599 56.26999999999997 C 180.785 112.593 178.36 173.49 190.107 229.334 z M 184.125 311.357 L 172.291 307.988 C 171.894 307.872 171.68099999999998 308.022 171.652 308.438 L 171.47799999999998 311.632 C 171.44899999999998 312.223 171.73499999999999 312.498 172.33499999999998 312.46 L 184.082 311.74899999999997 C 184.19299999999998 311.734 184.271 311.63199999999995 184.256 311.52 C 184.245 311.446 184.195 311.383 184.125 311.357 z M 665.201 311.749 L 665.027 309.31 C 665.0120000000001 309.147 664.8710000000001 309.026 664.7080000000001 309.034 L 664.4470000000001 309.048 C 657.6450000000001 309.524 652.1730000000001 310.563 652.2210000000001 311.371 L 652.2210000000001 311.48699999999997 C 652.3030000000001 312.29099999999994 657.8610000000001 312.55699999999996 664.6500000000001 312.082 L 664.9110000000001 312.067 C 665.079 312.061 665.209 311.918 665.201 311.749 C 665.201 311.75 665.201 311.749 665.201 311.749 z M 173.67 343.519 C 173.69899999999998 343.814 173.96099999999998 344.03000000000003 174.25699999999998 344.002 C 174.289 343.999 174.32099999999997 343.993 174.35299999999998 343.98400000000004 L 187.95799999999997 340.07800000000003 C 188.24699999999996 340.01000000000005 188.42499999999998 339.72 188.35699999999997 339.43100000000004 C 188.29999999999998 339.19100000000003 188.08799999999997 339.021 187.84199999999998 339.01800000000003 L 173.75799999999998 338.031 C 173.462 338.005 173.20199999999997 338.224 173.176 338.519 C 173.173 338.555 173.173 338.591 173.177 338.62600000000003 L 173.67 343.519 z M 647.124 338.843 C 646.868 338.85900000000004 646.673 339.079 646.6890000000001 339.33500000000004 C 646.7 339.51900000000006 646.82 339.67900000000003 646.993 339.74300000000005 L 661.716 344.40400000000005 C 661.962 344.47800000000007 662.221 344.3380000000001 662.295 344.0930000000001 C 662.303 344.06700000000006 662.308 344.0400000000001 662.312 344.01200000000006 L 662.849 339.09000000000003 C 662.873 338.83400000000006 662.6850000000001 338.608 662.4300000000001 338.58400000000006 C 662.4150000000001 338.5830000000001 662.4000000000001 338.58200000000005 662.384 338.58200000000005 L 647.124 338.843 z M 118.756 564.542 C 105.669 577.61 97.31 592.9580000000001 93.68 610.585 C 85.679 649.368 100.69300000000001 691.8240000000001 136.76100000000002 710.7 C 156.21800000000002 720.893 177.824 726.2460000000001 201.57800000000003 726.759 C 202.06200000000004 726.769 202.27000000000004 726.541 202.20200000000003 726.077 C 200.99200000000002 717.53 201.56800000000004 709.132 203.93000000000004 700.885 C 204.30800000000002 699.564 203.90100000000004 698.199 203.26200000000003 697.081 C 189.42900000000003 672.455 181.00800000000004 646.188 177.997 618.2810000000001 C 177.955 617.8760000000001 177.59500000000003 617.576 177.19400000000002 617.6110000000001 C 176.95700000000002 617.6320000000001 176.747 617.7680000000001 176.632 617.9760000000001 C 175.165 620.488 170.127 626.6440000000001 166.59900000000002 623.7980000000001 C 161.067 619.3400000000001 172.61 599.2010000000001 175.674 594.5260000000001 C 175.939 594.128 176.08100000000002 593.663 176.08100000000002 593.19 C 176.08100000000002 578.37 177.209 563.99 179.46400000000003 550.051 L 182.61500000000004 534.1370000000001 C 182.69700000000003 533.7120000000001 182.42500000000004 533.3000000000001 182.00800000000004 533.2170000000001 C 181.90200000000004 533.1960000000001 181.79200000000003 533.1980000000001 181.68600000000004 533.2230000000001 C 157.684 538.74 136.572 547.002 118.756 564.542 z M 626.476 705.851 C 630.585 705.038 632.545 708.697 634.026 712.254 C 637.1429999999999 719.756 636.514 726.977 632.1379999999999 733.918 C 631.93 734.235 632.0239999999999 734.657 632.3469999999999 734.862 C 632.5499999999998 734.99 632.8059999999998 735.007 633.0229999999999 734.906 C 662.1499999999999 720.967 655.021 684.6809999999999 632.5289999999999 668.709 C 632.0839999999998 668.395 631.4669999999999 668.501 631.1529999999999 668.9459999999999 C 631.103 669.016 631.0629999999999 669.093 631.0329999999999 669.1729999999999 C 625.002 685.2319999999999 616.9629999999999 700.2219999999999 606.9149999999998 714.1409999999998 C 606.5959999999999 714.5959999999999 606.4749999999998 715.0989999999998 606.5519999999998 715.6509999999998 C 607.5299999999997 722.6109999999999 606.9439999999998 729.4349999999998 604.7949999999998 736.1239999999998 C 604.6299999999999 736.6559999999998 604.8189999999998 736.9609999999998 605.3609999999999 737.0389999999998 C 611.2129999999999 737.8229999999998 616.5269999999999 737.9249999999997 621.2019999999999 733.8449999999998 C 628.3259999999999 727.6109999999998 629.3379999999999 719.8819999999998 624.2369999999999 710.6569999999998 C 623.3609999999999 709.0709999999998 623.9359999999998 707.0739999999998 625.5229999999998 706.1979999999999 C 625.823 706.034 626.143 705.916 626.476 705.851 z M 217.491 718.832 C 217.622 727.762 224.99800000000002 735.443 233.59400000000002 736.793 C 233.776 736.824 233.94800000000004 736.702 233.979 736.52 C 233.996 736.42 233.967 736.317 233.899 736.242 L 218.072 718.5999999999999 C 217.948 718.4639999999999 217.737 718.454 217.6 718.5779999999999 C 217.529 718.642 217.489 718.735 217.491 718.832 z M 588.013 736.517 C 587.837 736.714 587.8530000000001 737.017 588.0500000000001 737.1940000000001 C 588.1390000000001 737.2740000000001 588.2560000000001 737.3180000000001 588.3760000000001 737.316 L 594.9540000000001 737.214 C 595.1680000000001 737.2070000000001 595.3520000000001 737.0590000000001 595.4040000000001 736.851 L 597.9450000000002 726.861 C 598.0020000000002 726.603 597.8390000000002 726.347 597.5800000000002 726.29 C 597.4170000000001 726.254 597.2470000000002 726.305 597.1310000000002 726.4259999999999 L 588.013 736.517 z" stroke-linecap="round" />
</g>
		<g transform="matrix(0.5266421121 0 0 0.5266421121 -77.8248598973 -139.4087219981)" id="hi5Zp25FgwvOTsVq9A_My"  >
<path style="stroke: none; stroke-width: 1; stroke-dasharray: none; stroke-linecap: butt; stroke-dashoffset: 0; stroke-linejoin: miter; stroke-miterlimit: 4; fill: rgb(238,190,123); fill-rule: nonzero; opacity: 1;"  transform=" translate(-252.225524256, -135.2872060696)" d="M 276.544 149.532 C 252.27599999999998 164.294 229.91099999999997 182.42000000000002 209.447 203.90900000000002 C 201.732 212.00100000000003 195.285 220.47600000000003 190.106 229.33300000000003 C 178.35899999999998 173.48900000000003 180.784 112.59200000000003 195.595 56.269000000000034 C 198.71699999999998 44.406000000000034 206.95 37.074000000000034 219.408 43.811000000000035 C 256.056 63.64500000000004 290.091 87.33700000000005 321.513 114.88600000000004 C 321.839 115.17200000000004 321.871 115.66700000000004 321.585 115.99300000000004 C 321.531 116.05500000000004 321.467 116.10800000000003 321.39599999999996 116.15000000000003 C 305.473 125.521 290.522 136.648 276.544 149.532 z M 201.781 192.191 C 202.667 167.231 202.812 142.765 206.602 117.994 C 207.493 112.167 209.18200000000002 106.121 211.67000000000002 99.859 C 216.215 88.374 225.217 94.792 230.72000000000003 100.469 C 240.20600000000002 110.285 250.55900000000003 121.833 261.778 135.114 C 262.204 135.617 262.66400000000004 135.75300000000001 263.15700000000004 135.52100000000002 C 263.50700000000006 135.36100000000002 263.66100000000006 134.948 263.50100000000003 134.597 C 263.49300000000005 134.58 263.485 134.56400000000002 263.47600000000006 134.548 C 253.71900000000005 116.122 243.80100000000004 96.767 229.10700000000006 81.768 C 214.83400000000006 67.19 204.93100000000007 79.59 201.83800000000005 94.168 C 198.62400000000005 109.31700000000001 197.28400000000005 124.641 197.81600000000006 140.138 C 198.42600000000007 157.92000000000002 199.37000000000006 175.799 200.64700000000005 193.775 C 200.65500000000006 193.991 200.77600000000004 194.18800000000002 200.96600000000004 194.298 C 201.33400000000003 194.501 201.63900000000004 194.501 201.88100000000003 194.298 C 202.06500000000003 194.153 202.15200000000002 193.95 202.14200000000002 193.688 C 202.13200000000003 193.48499999999999 202.07900000000004 193.291 201.98200000000003 193.107 C 201.839 192.816 201.771 192.511 201.781 192.191 z" stroke-linecap="round" />
</g>
		<g transform="matrix(0.5266421121 0 0 0.5266421121 96.3098051123 -139.8323240599)" id="9_Wcb3GN-hxK4HubWLfWp"  >
<path style="stroke: none; stroke-width: 1; stroke-dasharray: none; stroke-linecap: butt; stroke-dashoffset: 0; stroke-linejoin: miter; stroke-miterlimit: 4; fill: rgb(238,190,123); fill-rule: nonzero; opacity: 1;"  transform=" translate(-582.8763799485, -134.4828608567)" d="M 645.875 227.577 C 641.606 220.607 637.482 213.94299999999998 632.11 207.873 C 615.848 189.534 597.9590000000001 174.869 578.691 159.899 C 574.316 156.501 568.546 152.765 561.383 148.69 C 546.1850000000001 136.3 530.32 125.36099999999999 513.7860000000001 115.875 C 513.431 115.673 513.307 115.22 513.509 114.865 C 513.551 114.791 513.605 114.725 513.67 114.67 C 540.329 91.322 568.827 70.815 599.164 53.149 C 606.889 48.662 619.477 40.459 627.6229999999999 41.475 C 638.353 42.825 641.4169999999999 59.378 643.377 68.976 C 653.803 119.693 655.777 176.249 645.875 227.577 z M 579.01 129.131 C 587.112 120.061 595.297 111.07300000000001 603.563 102.167 C 612.057 93.019 622.395 87.705 626.418 104.258 C 633.199 132.18 633.649 160.087 633.881 188.63400000000001 C 633.881 188.75000000000003 633.92 188.769 633.997 188.692 L 634.81 187.893 C 634.904 187.809 634.9609999999999 187.694 634.9699999999999 187.574 C 636.3199999999999 176.553 648.43 53.656000000000006 611.3749999999999 77.94800000000001 C 608.9739999999999 79.52600000000001 606.9709999999999 81.186 605.3639999999999 82.92800000000001 C 597.959 90.99100000000001 590.9799999999999 100.56500000000001 584.4259999999999 111.64900000000002 C 580.564 118.17300000000002 576.7159999999999 124.94400000000002 572.8829999999999 131.96200000000002 C 572.627 132.43400000000003 572.8019999999999 133.025 573.275 133.281 C 573.581 133.447 573.952 133.437 574.2479999999999 133.25400000000002 C 575.845 132.267 577.432 130.893 579.01 129.131 z" stroke-linecap="round" />
</g>
		<g transform="matrix(0.5266421121 0 0 0.5266421121 108.1430480142 -141.2670384035)" id="HzLJsig3ayDZzAhF1hnuR"  >
<path style="stroke: none; stroke-width: 1; stroke-dasharray: none; stroke-linecap: butt; stroke-dashoffset: 0; stroke-linejoin: miter; stroke-miterlimit: 4; fill: rgb(184,119,80); fill-rule: nonzero; opacity: 1;"  transform=" translate(-605.3456102475, -131.7585926855)" d="M 579.01 129.131 C 577.432 130.893 575.845 132.267 574.247 133.255 C 573.789 133.536 573.1899999999999 133.394 572.909 132.936 C 572.727 132.64000000000001 572.717 132.269 572.882 131.963 C 576.7149999999999 124.945 580.563 118.17399999999999 584.425 111.64999999999999 C 590.978 100.56599999999999 597.958 90.993 605.3629999999999 82.92899999999999 C 606.9699999999999 81.18699999999998 608.9739999999999 79.52599999999998 611.3739999999999 77.94899999999998 C 648.4289999999999 53.65699999999998 636.319 176.55399999999997 634.9689999999999 187.575 C 634.9599999999999 187.696 634.9029999999999 187.81 634.809 187.89399999999998 L 633.996 188.69299999999998 C 633.918 188.76999999999998 633.88 188.75099999999998 633.88 188.635 C 633.648 160.089 633.198 132.18099999999998 626.417 104.25899999999999 C 622.395 87.70599999999999 612.057 93.02099999999999 603.562 102.16799999999999 C 595.297 111.073 587.112 120.061 579.01 129.131 z" stroke-linecap="round" />
</g>
		<g transform="matrix(0.5266421121 0 0 0.5266421121 -89.1951902859 -139.6401582636)" id="AyBsp5aZ1PsOGts6fwplm"  >
<path style="stroke: none; stroke-width: 1; stroke-dasharray: none; stroke-linecap: butt; stroke-dashoffset: 0; stroke-linejoin: miter; stroke-miterlimit: 4; fill: rgb(184,119,80); fill-rule: nonzero; opacity: 1;"  transform=" translate(-230.6352827478, -134.8477496338)" d="M 201.984 193.106 C 202.08100000000002 193.29 202.13400000000001 193.48399999999998 202.144 193.68699999999998 C 202.154 193.94799999999998 202.067 194.152 201.883 194.297 C 201.64100000000002 194.5 201.336 194.5 200.96800000000002 194.297 C 200.77700000000002 194.18699999999998 200.656 193.99 200.64900000000003 193.774 C 199.37100000000004 175.798 198.42700000000002 157.919 197.81800000000004 140.137 C 197.28600000000003 124.639 198.62600000000003 109.316 201.84000000000003 94.167 C 204.93300000000002 79.589 214.83500000000004 67.189 229.10900000000004 81.767 C 243.80300000000003 96.76599999999999 253.72000000000003 116.121 263.47800000000007 134.547 C 263.6650000000001 134.883 263.54400000000004 135.308 263.2080000000001 135.495 C 263.19200000000006 135.504 263.17500000000007 135.512 263.1590000000001 135.52 C 262.6650000000001 135.752 262.2050000000001 135.61700000000002 261.7800000000001 135.113 C 250.5610000000001 121.832 240.20800000000008 110.28399999999999 230.7220000000001 100.46799999999999 C 225.2190000000001 94.791 216.2160000000001 88.37299999999999 211.67200000000008 99.85799999999999 C 209.18400000000008 106.121 207.4950000000001 112.166 206.60400000000007 117.993 C 202.81400000000008 142.764 202.66900000000007 167.23 201.78300000000007 192.19 C 201.771 192.511 201.839 192.816 201.984 193.106 z" stroke-linecap="round" />
</g>
		<g transform="matrix(0.5266421121 0 0 0.5266421121 9.3559055392 -58.5274719106)" id="HS3ATSt3zNljCYCSIsr5Z"  >
<path style="stroke: none; stroke-width: 1; stroke-dasharray: none; stroke-linecap: butt; stroke-dashoffset: 0; stroke-linejoin: miter; stroke-miterlimit: 4; fill: rgb(254,252,242); fill-rule: nonzero; opacity: 1;"  transform=" translate(-417.7663411284, -288.8663601652)" d="M 561.383 148.69 C 568.546 152.765 574.315 156.502 578.691 159.899 C 597.9590000000001 174.869 615.8480000000001 189.534 632.11 207.873 C 637.482 213.94199999999998 641.606 220.607 645.875 227.577 C 653.967 244.459 659.756 262.42 663.241 281.461 C 663.338 281.98400000000004 663.115 282.269 662.573 282.31800000000004 C 653.667 283.17 644.9069999999999 284.10900000000004 636.292 285.13500000000005 C 633.475 285.47400000000005 631.592 286.61600000000004 630.644 288.56200000000007 C 630.395 289.07700000000006 630.462 289.6910000000001 630.818 290.1450000000001 C 632.096 291.72300000000007 633.954 292.4830000000001 636.394 292.42500000000007 C 654.583 292.0280000000001 670.874 291.6120000000001 685.268 291.17600000000004 C 692.77 290.95300000000003 692.8770000000001 291.74700000000007 685.587 293.557 C 669.963 297.439 654.713 301.62 639.834 306.10200000000003 C 636.4849999999999 307.11800000000005 634.007 308.89000000000004 632.4 311.41600000000005 C 632.158 311.78800000000007 632.069 312.24100000000004 632.153 312.67900000000003 C 632.869 316.386 634.588 318.41900000000004 637.308 318.77700000000004 C 657.191 321.38100000000003 676.909 323.45700000000005 696.462 325.00600000000003 C 698.611 325.17100000000005 698.621 325.442 696.491 325.819 C 695.252 326.03200000000004 693.568 326.235 691.438 326.42900000000003 C 675.65 327.891 659.857 329.24100000000004 644.059 330.48 C 639.2529999999999 330.858 629.858 332.353 628.276 336.54900000000004 C 625.6479999999999 343.51900000000006 641.01 347.36600000000004 645.192 348.71700000000004 C 660.477 353.69300000000004 675.7280000000001 359.02600000000007 690.945 364.718 C 692.2420000000001 365.202 692.2230000000001 365.58000000000004 690.8870000000001 365.851 C 690.471 365.928 689.629 365.841 688.3610000000001 365.59 C 667.4810000000001 361.41799999999995 646.5340000000001 357.633 625.5180000000001 354.23499999999996 C 621.6850000000002 353.61099999999993 618.8390000000002 355.23699999999997 619.8260000000001 359.56399999999996 C 619.9420000000001 360.03799999999995 620.1890000000002 360.426 620.5670000000001 360.72599999999994 C 622.0090000000001 361.8589999999999 623.6690000000001 362.6619999999999 625.5470000000001 363.13599999999997 C 632.9130000000001 365.00399999999996 640.5320000000002 366.78499999999997 648.4010000000002 368.479 C 645.5460000000002 371.102 643.1840000000002 374.02099999999996 641.3150000000002 377.235 C 639.1180000000002 380.991 637.4380000000002 383.55600000000004 636.2770000000002 384.93100000000004 C 594.2710000000002 434.45900000000006 536.9890000000001 458.92500000000007 473.11600000000016 466.82400000000007 C 377.03700000000015 478.71600000000007 280.6390000000001 459.1430000000001 212.13400000000013 386.97900000000004 C 208.17500000000013 382.807 202.96700000000013 375.94900000000007 196.51000000000013 366.40400000000005 C 202.17300000000014 365.2710000000001 213.16400000000013 363.84800000000007 216.88200000000012 360.1600000000001 C 218.27000000000012 358.78100000000006 218.27700000000013 356.5370000000001 216.8970000000001 355.1500000000001 C 216.6920000000001 354.9440000000001 216.4630000000001 354.76400000000007 216.2140000000001 354.6140000000001 C 214.88800000000012 353.8200000000001 213.2710000000001 353.5930000000001 211.36400000000012 353.9320000000001 C 189.31300000000013 357.9100000000001 167.20400000000012 361.7820000000001 145.03700000000012 365.54800000000006 C 144.81100000000012 365.60100000000006 144.58400000000012 365.46100000000007 144.53000000000011 365.23500000000007 C 144.47900000000013 365.0180000000001 144.6050000000001 364.7990000000001 144.8190000000001 364.73500000000007 C 161.2270000000001 358.65600000000006 177.8470000000001 352.87700000000007 194.6810000000001 347.3980000000001 C 198.6450000000001 346.1060000000001 209.9850000000001 342.9260000000001 208.1990000000001 336.76900000000006 C 206.9500000000001 332.42800000000005 197.2940000000001 331.03400000000005 192.8660000000001 330.64200000000005 C 174.4060000000001 329.0640000000001 156.0140000000001 327.43300000000005 137.6900000000001 325.7490000000001 C 137.52600000000012 325.7120000000001 137.4220000000001 325.55000000000007 137.45900000000012 325.3850000000001 C 137.48500000000013 325.2700000000001 137.57500000000013 325.1790000000001 137.6900000000001 325.1540000000001 C 155.85900000000012 323.26600000000013 174.00900000000013 321.48000000000013 192.1400000000001 319.7960000000001 C 195.9590000000001 319.4470000000001 203.5090000000001 318.53300000000013 203.7410000000001 313.2760000000001 C 203.9440000000001 308.49900000000014 199.0220000000001 306.74200000000013 195.1450000000001 305.53700000000015 C 178.6210000000001 300.39700000000016 163.5880000000001 296.23000000000013 150.0460000000001 293.03500000000014 C 142.80500000000012 291.33100000000013 142.9020000000001 290.6100000000001 150.3360000000001 290.8720000000001 C 167.0630000000001 291.47200000000015 184.50600000000009 291.9610000000001 202.6660000000001 292.3390000000001 C 204.46600000000012 292.3680000000001 205.7540000000001 291.38600000000014 206.5280000000001 289.39100000000013 C 206.6830000000001 288.96500000000015 206.6680000000001 288.54900000000015 206.4840000000001 288.1420000000001 C 205.64200000000008 286.2450000000001 204.2480000000001 285.1610000000001 202.3020000000001 284.8900000000001 C 195.7970000000001 283.9800000000001 186.2670000000001 283.0610000000001 173.7120000000001 282.1310000000001 C 173.1800000000001 282.0920000000001 172.9620000000001 281.81200000000007 173.0590000000001 281.2890000000001 C 176.18600000000012 263.1290000000001 181.8680000000001 245.8120000000001 190.1050000000001 229.3360000000001 C 195.2840000000001 220.4790000000001 201.7310000000001 212.0040000000001 209.4460000000001 203.9120000000001 C 229.9090000000001 182.42200000000008 252.27500000000012 164.29700000000008 276.5430000000001 149.53500000000008 C 285.3030000000001 145.0140000000001 293.7590000000001 140.6440000000001 301.9090000000001 136.4230000000001 C 352.4680000000001 110.2100000000001 405.5380000000001 101.9190000000001 461.1210000000001 111.55000000000008 C 496.348 117.66 527.943 131.904 561.383 148.69 z M 445.47 208.323 C 455.59000000000003 198.13 457.333 183.21800000000002 452.26500000000004 170.16400000000002 C 447.53200000000004 157.93800000000002 435.46500000000003 140.45600000000002 422.31000000000006 136.40500000000003 C 412.3930000000001 133.35600000000002 412.93000000000006 144.28900000000004 414.67300000000006 149.95200000000003 C 420.6070000000001 169.17600000000002 427.28100000000006 188.14000000000004 434.6960000000001 206.84100000000004 C 436.903 212.403 441.825 211.997 445.47 208.323 z M 369.777 204.141 C 375.43 218.332 381.378 232.392 387.62199999999996 246.322 C 388.81299999999993 248.965 389.94499999999994 251.883 393.328 251.622 C 401.37199999999996 250.983 405.438 233.138 405.24899999999997 226.51700000000002 C 404.72599999999994 209.02000000000004 389.85799999999995 186.00600000000003 373.378 179.18200000000002 C 369.93199999999996 177.75900000000001 367.217 178.412 365.23199999999997 181.14200000000002 C 361.791 185.919 367.076 197.375 369.777 204.141 z M 342.697 312.403 C 342.697 292.62 326.659 276.582 306.876 276.582 L 306.876 276.582 C 287.09299999999996 276.582 271.05499999999995 292.62 271.05499999999995 312.403 C 271.05499999999995 332.18600000000004 287.09299999999996 348.22400000000005 306.876 348.22400000000005 C 326.66 348.223 342.697 332.186 342.697 312.403 z M 517.042 346.178 C 535.5160000000001 352.866 555.971 343.152 562.729 324.48199999999997 L 562.729 324.48199999999997 C 569.4870000000001 305.81199999999995 559.99 285.256 541.5160000000001 278.56899999999996 C 523.042 271.88199999999995 502.5870000000001 281.59499999999997 495.82900000000006 300.265 C 495.82900000000006 300.265 495.82900000000006 300.265 495.82900000000006 300.265 C 489.071 318.935 498.568 339.491 517.042 346.178 z M 417.853 375.187 C 428.438 389.968 449.681 387.848 459.99 374.49 C 463.475 369.974 462.938 364.065 456.345 363.368 C 455.20000000000005 363.252 454.08500000000004 363.771 453.44100000000003 364.718 C 448.72200000000004 371.615 441.636 377.074 433.12800000000004 374.446 C 421.71500000000003 370.918 422.44100000000003 358.619 422.35400000000004 349.06500000000005 C 422.35400000000004 348.56000000000006 422.59000000000003 348.083 422.99300000000005 347.7730000000001 C 426.94200000000006 344.73800000000006 435.61100000000005 338.5820000000001 436.71400000000006 333.89200000000005 C 439.8500000000001 320.46100000000007 412.64000000000004 323.3500000000001 407.3980000000001 323.83000000000004 C 400.0220000000001 324.48300000000006 393.53100000000006 332.46900000000005 400.67500000000007 338.53900000000004 C 404.33400000000006 341.65600000000006 407.97400000000005 344.83600000000007 411.59400000000005 348.07900000000006 C 411.94800000000004 348.39500000000004 412.16200000000003 348.8330000000001 412.1890000000001 349.2990000000001 C 412.4120000000001 352.9480000000001 412.1890000000001 356.9750000000001 411.5210000000001 361.3800000000001 C 409.6770000000001 373.5910000000001 398.0320000000001 378.4850000000001 387.6360000000001 372.2550000000001 C 385.4290000000001 370.9190000000001 379.11300000000006 359.1140000000001 374.39400000000006 365.4450000000001 C 371.72200000000004 369.0460000000001 372.33700000000005 372.7200000000001 376.23800000000006 376.4660000000001 C 388.30400000000003 388.0090000000001 405.88800000000003 389.76600000000013 416.67600000000004 375.1880000000001 C 416.92400000000004 374.8630000000001 417.38500000000005 374.7960000000001 417.70500000000004 375.0380000000001 C 417.762 375.079 417.812 375.13 417.853 375.187 z" stroke-linecap="round" />
</g>
		<g transform="matrix(0.5266421121 0 0 0.5266421121 18.0871873294 -119.3004541969)" id="u_y8_RiqlBkhwE9ilShU1"  >
<path style="stroke: none; stroke-width: 1; stroke-dasharray: none; stroke-linecap: butt; stroke-dashoffset: 0; stroke-linejoin: miter; stroke-miterlimit: 4; fill: rgb(238,190,123); fill-rule: nonzero; opacity: 1;"  transform=" translate(-434.3454972377, -173.4692415339)" d="M 452.265 170.165 C 457.33299999999997 183.219 455.59 198.131 445.46999999999997 208.32399999999998 C 441.825 211.998 436.90299999999996 212.404 434.69599999999997 206.843 C 427.28099999999995 188.141 420.60699999999997 169.178 414.67299999999994 149.95399999999998 C 412.9309999999999 144.29099999999997 412.393 133.35799999999998 422.30999999999995 136.40699999999998 C 435.466 140.457 447.532 157.939 452.265 170.165 z" stroke-linecap="round" />
</g>
		<g transform="matrix(0.5266421121 0 0 0.5266421121 -8.068718685 -97.4057491008)" id="gDYZ9jc6p_QJOS1fgdxn6"  >
<path style="stroke: none; stroke-width: 1; stroke-dasharray: none; stroke-linecap: butt; stroke-dashoffset: 0; stroke-linejoin: miter; stroke-miterlimit: 4; fill: rgb(238,190,123); fill-rule: nonzero; opacity: 1;"  transform=" translate(-384.6800690209, -215.0434046953)" d="M 369.777 204.141 C 367.07599999999996 197.375 361.791 185.918 365.23199999999997 181.141 C 367.21599999999995 178.411 369.93199999999996 177.75799999999998 373.378 179.18099999999998 C 389.858 186.005 404.727 209.01999999999998 405.24899999999997 226.516 C 405.438 233.137 401.37199999999996 250.982 393.328 251.62099999999998 C 389.945 251.88199999999998 388.81199999999995 248.96399999999997 387.62199999999996 246.32099999999997 C 381.379 232.392 375.43 218.332 369.777 204.141 z" stroke-linecap="round" />
</g>
		<g transform="matrix(0.5266421121 0 0 0.5266421121 -49.0436179242 -46.1320861963)" id="HFO-oJXlAKHDOiuMgzdv7"  >
<path style="stroke: none; stroke-width: 1; stroke-dasharray: none; stroke-linecap: butt; stroke-dashoffset: 0; stroke-linejoin: miter; stroke-miterlimit: 4; fill: rgb(41,12,23); fill-rule: nonzero; opacity: 1;"  transform=" translate(0, 0)" d="M 35.821 0 C 35.821 19.783 19.782999999999998 35.821 0 35.821 C -19.783 35.821 -35.821 19.782999999999998 -35.821 0 C -35.821 -19.783 -19.784 -35.821 0 -35.821 C 19.784 -35.821 35.821 -19.784 35.821 0 z" stroke-linecap="round" />
</g>
		<g transform="matrix(0.5266421121 0 0 0.5266421121 68.0831677332 -46.1476221387)" id="msuv3c8mI4bBpXv-cDZhH"  >
<path style="stroke: none; stroke-width: 1; stroke-dasharray: none; stroke-linecap: butt; stroke-dashoffset: 0; stroke-linejoin: miter; stroke-miterlimit: 4; fill: rgb(41,12,23); fill-rule: nonzero; opacity: 1;"  transform=" translate(0, 0)" d="M -12.237 33.8045 C -30.711 27.117499999999996 -40.208 6.561499999999999 -33.45 -12.1085 C -26.692000000000004 -30.7785 -6.237000000000002 -40.4925 12.236999999999995 -33.804500000000004 L 12.236999999999995 -33.804500000000004 C 30.710999999999995 -27.117500000000003 40.208 -6.561500000000006 33.449999999999996 12.108499999999992 C 26.691999999999997 30.778499999999994 6.236999999999995 40.49249999999999 -12.237000000000002 33.80449999999999 z" stroke-linecap="round" />
</g>
		<g transform="matrix(0.5266421121 0 0 0.5266421121 -116.9852740973 -47.2886761215)" id="H9ucJbIFxr3pQSSA1EE09"  >
<path style="stroke: none; stroke-width: 1; stroke-dasharray: none; stroke-linecap: butt; stroke-dashoffset: 0; stroke-linejoin: miter; stroke-miterlimit: 4; fill: rgb(254,254,254); fill-rule: nonzero; opacity: 1;"  transform=" translate(-177.8668406257, -310.2068407895)" d="M 172.291 307.988 L 184.125 311.357 C 184.23 311.396 184.284 311.51300000000003 184.245 311.61800000000005 C 184.219 311.68800000000005 184.156 311.73900000000003 184.082 311.749 L 172.33499999999998 312.46000000000004 C 171.73499999999999 312.499 171.44899999999998 312.223 171.47799999999998 311.63200000000006 L 171.652 308.43800000000005 C 171.681 308.022 171.894 307.872 172.291 307.988 z" stroke-linecap="round" />
</g>
		<g transform="matrix(0.5266421121 0 0 0.5266421121 136.2472559702 -47.041292231)" id="mH-j-k_rFShq5q3KMjtFa"  >
<path style="stroke: none; stroke-width: 1; stroke-dasharray: none; stroke-linecap: butt; stroke-dashoffset: 0; stroke-linejoin: miter; stroke-miterlimit: 4; fill: rgb(254,254,254); fill-rule: nonzero; opacity: 1;"  transform=" translate(-658.7105184276, -310.6765789377)" d="M 665.201 311.749 C 665.2090000000001 311.91700000000003 665.0790000000001 312.06 664.9110000000001 312.06800000000004 C 664.9110000000001 312.06800000000004 664.9110000000001 312.06800000000004 664.9100000000001 312.06800000000004 L 664.6490000000001 312.083 C 657.8600000000001 312.55800000000005 652.3020000000001 312.29200000000003 652.2200000000001 311.488 L 652.2200000000001 311.372 C 652.1720000000001 310.564 657.6430000000001 309.524 664.4460000000001 309.04900000000004 L 664.7070000000001 309.035 C 664.8700000000001 309.02700000000004 665.0110000000001 309.148 665.0260000000001 309.31100000000004 L 665.201 311.749 z" stroke-linecap="round" />
</g>
		<g transform="matrix(0.5266421121 0 0 0.5266421121 9.1835016152 -23.99829144)" id="7HWDpliTv0vUsnj9cZSQP"  >
<path style="stroke: none; stroke-width: 1; stroke-dasharray: none; stroke-linecap: butt; stroke-dashoffset: 0; stroke-linejoin: miter; stroke-miterlimit: 4; fill: rgb(41,12,23); fill-rule: nonzero; opacity: 1;"  transform=" translate(-417.4389766432, -354.4311520368)" d="M 416.677 375.187 C 405.889 389.765 388.305 388.00800000000004 376.23900000000003 376.46500000000003 C 372.338 372.71900000000005 371.723 369.045 374.39500000000004 365.444 C 379.11400000000003 359.113 385.43000000000006 370.918 387.63700000000006 372.254 C 398.0330000000001 378.483 409.67800000000005 373.59000000000003 411.52200000000005 361.379 C 412.19000000000005 356.975 412.41300000000007 352.94800000000004 412.19000000000005 349.298 C 412.16200000000003 348.833 411.94800000000004 348.394 411.595 348.078 C 407.975 344.835 404.33500000000004 341.655 400.67600000000004 338.53799999999995 C 393.53200000000004 332.46899999999994 400.023 324.48299999999995 407.39900000000006 323.82899999999995 C 412.6410000000001 323.34999999999997 439.85100000000006 320.4599999999999 436.71500000000003 333.89099999999996 C 435.61100000000005 338.58099999999996 426.94300000000004 344.73699999999997 422.994 347.77199999999993 C 422.591 348.08199999999994 422.355 348.55999999999995 422.355 349.0639999999999 C 422.442 358.6179999999999 421.716 370.9169999999999 433.129 374.44499999999994 C 441.63800000000003 377.0729999999999 448.723 371.6139999999999 453.442 364.7169999999999 C 454.086 363.76899999999995 455.201 363.2509999999999 456.346 363.3669999999999 C 462.938 364.0639999999999 463.475 369.97399999999993 459.991 374.4889999999999 C 449.68199999999996 387.8469999999999 428.43899999999996 389.9669999999999 417.854 375.1859999999999 C 417.61899999999997 374.86099999999993 417.161 374.7939999999999 416.83099999999996 375.03599999999994 C 416.772 375.079 416.72 375.13 416.677 375.187 z M 402.316 334.458 C 405.859 338.175 414.71599999999995 346.61100000000005 420.147 343.809 C 424.90999999999997 341.35 428.936 337.94300000000004 432.228 333.58700000000005 C 432.522 333.20200000000006 432.629 332.701 432.51800000000003 332.22200000000004 C 431.918 329.60800000000006 430.19500000000005 328.18500000000006 427.34900000000005 327.95300000000003 C 421.439 327.48800000000006 407.16600000000005 326.283 402.52000000000004 330.29100000000005 C 401.31500000000005 331.3380000000001 401.18800000000005 333.16300000000007 402.23400000000004 334.3670000000001 C 402.261 334.398 402.288 334.429 402.316 334.458 z" stroke-linecap="round" />
</g>
		<g transform="matrix(0.5266421121 0 0 0.5266421121 8.974541697 -33.761360797)" id="FJaJebZ4_n8dG-qXgWqOQ"  >
<path style="stroke: none; stroke-width: 1; stroke-dasharray: none; stroke-linecap: butt; stroke-dashoffset: 0; stroke-linejoin: miter; stroke-miterlimit: 4; fill: rgb(238,190,123); fill-rule: nonzero; opacity: 1;"  transform=" translate(-417.0421988059, -335.8928142687)" d="M 420.147 343.809 C 414.717 346.61100000000005 405.859 338.175 402.316 334.458 C 401.219 333.29900000000004 401.26899999999995 331.47 402.428 330.37300000000005 C 402.45799999999997 330.345 402.488 330.31700000000006 402.519 330.29100000000005 C 407.165 326.28400000000005 421.439 327.48900000000003 427.348 327.95300000000003 C 430.194 328.18500000000006 431.91700000000003 329.608 432.517 332.22200000000004 C 432.627 332.701 432.521 333.201 432.227 333.58700000000005 C 428.936 337.943 424.91 341.351 420.147 343.809 z" stroke-linecap="round" />
</g>
		<g transform="matrix(0.5266421121 0 0 0.5266421121 -115.4553830388 -31.0627961142)" id="6pd8CAXo8PDXkPLx5R26g"  >
<path style="stroke: none; stroke-width: 1; stroke-dasharray: none; stroke-linecap: butt; stroke-dashoffset: 0; stroke-linejoin: miter; stroke-miterlimit: 4; fill: rgb(254,252,242); fill-rule: nonzero; opacity: 1;"  transform=" translate(-180.7718325041, -341.01691016)" d="M 173.67 343.519 L 173.176 338.62600000000003 C 173.143 338.331 173.355 338.06500000000005 173.64999999999998 338.03200000000004 C 173.68599999999998 338.028 173.72099999999998 338.028 173.75699999999998 338.03100000000006 L 187.84099999999998 339.0180000000001 C 188.13799999999998 339.0220000000001 188.37499999999997 339.2660000000001 188.37099999999998 339.5630000000001 C 188.368 339.8090000000001 188.19699999999997 340.02100000000013 187.95799999999997 340.0780000000001 L 174.35299999999998 343.9840000000001 C 174.06799999999998 344.0660000000001 173.76999999999998 343.9000000000001 173.689 343.61500000000007 C 173.679 343.583 173.673 343.551 173.67 343.519 z" stroke-linecap="round" />
</g>
		<g transform="matrix(0.5266421121 0 0 0.5266421121 134.1716678128 -30.8065326702)" id="W5tY56TeIf48jYDuWirSY"  >
<path style="stroke: none; stroke-width: 1; stroke-dasharray: none; stroke-linecap: butt; stroke-dashoffset: 0; stroke-linejoin: miter; stroke-miterlimit: 4; fill: rgb(254,252,242); fill-rule: nonzero; opacity: 1;"  transform=" translate(-654.7693445075, -341.5035090061)" d="M 647.124 338.843 L 662.384 338.582 C 662.641 338.581 662.85 338.788 662.851 339.045 C 662.851 339.06 662.85 339.075 662.849 339.091 L 662.312 344.01300000000003 C 662.283 344.26800000000003 662.052 344.451 661.797 344.422 C 661.77 344.41900000000004 661.743 344.413 661.716 344.40500000000003 L 646.993 339.744 C 646.7520000000001 339.656 646.628 339.389 646.716 339.148 C 646.779 338.974 646.939 338.855 647.124 338.843 z" stroke-linecap="round" />
</g>
		<g transform="matrix(0.5266421121 0 0 0.5266421121 9.1691134379 76.7549722996)" id="IqbB5njtAJKIiO2smrQlt"  >
<path style="stroke: none; stroke-width: 1; stroke-dasharray: none; stroke-linecap: butt; stroke-dashoffset: 0; stroke-linejoin: miter; stroke-miterlimit: 4; fill: rgb(225,221,201); fill-rule: nonzero; opacity: 1;"  transform=" translate(-417.4116560453, -545.7437368542)" d="M 196.51 366.402 C 202.96699999999998 375.94599999999997 208.17399999999998 382.805 212.134 386.977 C 280.639 459.14099999999996 377.038 478.71399999999994 473.116 466.822 C 536.989 458.923 594.271 434.457 636.277 384.929 C 637.4390000000001 383.554 639.118 380.989 641.315 377.23299999999995 C 643.1830000000001 374.01899999999995 645.5450000000001 371.10099999999994 648.4010000000001 368.477 L 653.498 369.755 C 654.0210000000001 369.881 654.1850000000001 370.195 653.9920000000001 370.699 C 640.561 406.88300000000004 610.7080000000001 432.85900000000004 583.9620000000001 459.068 C 583.7540000000001 459.256 583.738 459.578 583.9260000000002 459.786 C 584.0630000000001 459.937 584.2770000000002 459.992 584.4700000000001 459.925 L 596.4050000000001 456.353 C 597.2570000000001 456.091 598.1790000000001 456.474 598.6120000000001 457.26800000000003 C 644.0310000000001 541.832 647.268 652.1120000000001 577.6020000000001 724.799 C 577.166 725.254 576.9000000000001 725.167 576.8030000000001 724.538 C 574.8090000000001 712.051 570.4870000000001 700.445 563.8370000000001 689.719 C 563.5850000000002 689.317 563.4870000000001 688.8370000000001 563.5610000000001 688.369 C 569.1660000000002 649.9590000000001 574.1070000000002 611.5 578.3860000000002 572.993 C 578.4880000000002 572.0350000000001 578.2550000000002 570.394 578.1830000000002 569.378 C 578.1640000000002 569.123 578.0670000000002 568.889 577.9070000000003 568.71 C 577.3650000000002 568.12 576.6680000000002 568.061 575.8160000000003 568.5360000000001 C 575.2060000000002 555.061 573.5700000000003 541.6450000000001 570.9080000000002 528.287 C 570.7340000000003 527.445 570.2350000000002 527.145 569.4120000000003 527.3870000000001 C 508.0510000000003 545.595 440.40200000000027 551.0840000000001 377.25400000000025 539.918 C 324.31400000000025 530.567 276.74700000000024 509.474 234.55200000000025 476.64 C 231.51700000000025 474.27299999999997 227.56800000000024 470.222 223.53100000000023 467.623 L 231.82200000000023 452.101 C 232.07400000000024 451.646 232.44600000000023 451.506 232.94000000000023 451.68 L 249.88500000000022 457.822 C 250.0800000000002 457.889 250.29700000000022 457.79 250.37000000000023 457.6 C 250.42300000000023 457.463 250.38600000000022 457.31 250.27700000000024 457.21200000000005 C 223.70500000000024 430.96000000000004 195.15900000000025 406.40700000000004 180.82800000000026 370.74500000000006 C 180.64400000000026 370.2710000000001 180.79900000000026 369.9800000000001 181.29300000000026 369.8740000000001 L 196.51 366.402 z" stroke-linecap="round" />
</g>
		<g transform="matrix(0.5266421121 0 0 0.5266421121 -8.4314499165 108.6874806744)" id="nz6AKXymxXbWpPRVi-TWn"  >
<path style="stroke: none; stroke-width: 1; stroke-dasharray: none; stroke-linecap: butt; stroke-dashoffset: 0; stroke-linejoin: miter; stroke-miterlimit: 4; fill: rgb(254,252,242); fill-rule: nonzero; opacity: 1;"  transform=" translate(-383.9913067228, -606.3779087923)" d="M 223.532 467.621 C 227.56900000000002 470.21999999999997 231.518 474.27099999999996 234.553 476.638 C 276.748 509.47299999999996 324.31600000000003 530.5649999999999 377.255 539.9159999999999 C 440.402 551.082 508.051 545.593 569.413 527.385 C 570.236 527.143 570.734 527.443 570.909 528.285 C 573.571 541.6429999999999 575.207 555.06 575.817 568.534 C 574.955 570.702 574.259 572.967 573.726 575.329 C 562.642 624.862 554.497 662.981 549.289 689.688 C 548.766 692.331 549.739 696.382 551.06 699.228 C 556.055 709.871 559.656 717.088 560.992 727.4979999999999 L 560.919 733.872 C 560.909 734.366 560.672 734.6949999999999 560.207 734.8589999999999 L 545.077 740.1299999999999 C 544.409 734.9319999999999 541.244 724.7969999999999 534.826 728.7029999999999 C 533.488 729.5199999999999 532.946 731.1909999999999 533.548 732.6379999999998 L 536.612 739.9849999999998 C 536.593 740.6719999999998 536.481 741.2289999999998 536.278 741.6549999999997 C 536.088 742.0259999999997 535.634 742.1739999999998 535.2620000000001 741.9839999999997 C 535.2470000000001 741.9759999999997 535.2320000000001 741.9679999999997 535.2180000000001 741.9599999999997 C 534.3030000000001 741.3939999999997 533.388 740.8269999999997 532.2700000000001 740.9289999999997 C 525.6100000000001 741.4709999999998 518.873 741.9549999999997 512.0580000000001 742.3809999999997 C 511.51600000000013 742.4099999999997 511.17700000000013 742.1679999999998 511.0420000000001 741.6549999999997 C 510.5000000000001 739.6609999999997 510.4030000000001 737.4969999999997 510.75200000000007 735.1649999999997 C 510.2870000000001 731.5789999999997 507.0780000000001 728.1519999999997 503.68100000000004 730.9249999999997 C 501.05300000000005 733.0739999999997 501.66300000000007 739.1429999999997 501.735 742.4829999999997 L 475.64300000000003 742.3669999999997 C 475.61400000000003 738.3589999999997 476.538 735.1839999999997 478.41600000000005 732.8419999999998 C 478.69700000000006 732.4839999999998 478.80800000000005 732.0769999999998 478.75000000000006 731.6219999999997 C 478.09700000000004 726.8299999999997 472.9270000000001 726.1189999999997 470.32800000000003 730.1699999999997 C 468.50800000000004 733.0159999999997 467.35100000000006 736.2779999999997 466.858 739.9559999999997 L 466.568 743.5129999999997 C 466.52 744.0359999999997 466.24899999999997 744.2049999999997 465.755 744.0209999999997 C 465.058 743.7689999999998 464.763 743.2179999999997 464.86899999999997 742.3659999999998 C 464.92499999999995 741.9359999999998 464.77399999999994 741.5009999999997 464.462 741.1899999999997 C 460.183 736.8629999999997 458.335 731.8049999999997 458.91499999999996 726.0169999999997 C 459.97999999999996 715.2239999999997 461.88699999999994 700.3499999999997 464.63599999999997 681.3969999999997 C 466.32 669.7909999999997 468.02899999999994 649.3319999999997 469.76199999999994 620.0209999999997 C 469.98499999999996 616.3329999999997 469.38399999999996 610.4379999999998 467.96099999999996 602.3359999999998 L 469.282 583.9679999999997 C 469.351 583.3059999999997 468.86899999999997 582.7139999999997 468.207 582.6449999999998 C 467.61199999999997 582.5829999999997 467.062 582.9669999999998 466.915 583.5469999999998 L 451.843 635.9929999999998 C 449.433 635.8479999999998 447.865 636.2879999999998 447.139 637.3139999999999 C 433.824 656.1459999999998 414.48400000000004 670.3319999999999 390.206 664.8869999999998 C 383.837 637.8119999999998 376.615 610.7949999999998 368.54200000000003 583.8359999999998 C 368.319 583.0739999999998 367.52000000000004 582.6379999999998 366.75800000000004 582.8609999999998 C 366.14500000000004 583.0409999999997 365.72400000000005 583.6039999999998 365.725 584.2419999999997 L 365.711 589.5999999999997 C 365.866 594.9239999999996 365.788 600.2379999999997 365.479 605.5429999999997 C 365.101 612.0669999999997 365.024 617.3669999999996 365.24699999999996 621.4419999999997 C 366.79599999999994 650.7239999999997 369.57899999999995 679.8999999999996 373.59599999999995 708.9689999999997 C 374.71399999999994 717.1289999999997 376.49999999999994 728.5269999999997 373.6689999999999 736.3679999999997 C 372.7009999999999 739.0489999999998 371.9509999999999 741.8079999999998 371.41799999999995 744.6439999999997 C 371.35599999999994 744.9669999999996 371.04299999999995 745.1779999999997 370.72099999999995 745.1159999999996 C 370.55899999999997 745.0849999999997 370.417 744.9879999999996 370.32899999999995 744.8479999999996 C 369.79699999999997 743.9859999999996 369.60799999999995 742.5779999999996 369.763 740.6229999999996 C 369.298 736.6299999999995 366.96099999999996 728.3539999999996 362.66299999999995 727.4239999999996 C 360.46999999999997 726.9449999999996 358.77199999999993 728.6289999999997 357.929 730.4729999999996 C 357.73499999999996 730.9089999999997 357.72099999999995 731.3539999999996 357.885 731.8089999999996 L 360.818 739.6499999999996 L 360.121 741.1749999999996 C 359.87899999999996 741.6879999999996 359.57399999999996 741.7269999999996 359.20599999999996 741.2909999999996 L 358.407 740.3469999999996 C 358.097 739.9789999999996 357.7 739.8099999999996 357.216 739.8389999999996 L 334.158 741.1749999999996 C 334.14300000000003 737.3129999999996 335.37800000000004 731.0979999999996 330.15000000000003 730.1689999999996 C 328.247 729.8309999999997 326.43100000000004 731.0999999999997 326.093 733.0029999999996 C 326.06300000000005 733.1699999999996 326.046 733.3389999999996 326.041 733.5089999999996 L 325.80899999999997 741.3349999999996 L 299.702 741.0009999999996 C 300.109 737.8739999999997 300.96999999999997 735.3139999999996 302.287 733.3199999999996 C 302.55199999999996 732.9229999999995 302.68899999999996 732.4519999999995 302.679 731.9699999999996 C 302.65 728.6739999999995 299.42699999999996 726.4519999999995 296.464 728.3689999999996 C 292.006 731.2149999999996 290.525 739.2739999999995 291.033 744.2099999999996 C 290.93600000000004 744.6749999999996 290.636 744.9699999999996 290.13300000000004 745.0959999999995 C 289.581 745.2309999999995 289.29100000000005 745.0139999999996 289.26200000000006 744.4429999999995 C 289.1170000000001 741.7129999999995 287.59700000000004 739.8639999999996 284.70300000000003 738.8959999999995 C 280.057 737.3379999999995 276.18 736.5529999999995 273.072 736.5439999999995 C 271.41700000000003 721.9659999999996 277.123 709.9139999999995 283.526 696.9629999999995 C 284.717 694.5529999999995 285.007 690.6179999999995 284.528 688.0189999999996 C 277.142 648.0499999999995 268.846 608.3819999999996 259.641 569.0129999999996 C 259.522 568.5019999999996 259.16700000000003 568.0769999999995 258.683 567.8659999999995 C 257.667 567.4399999999995 256.941 567.6289999999996 256.505 568.4319999999996 C 256.302 568.8189999999995 256.229 569.3559999999995 256.287 570.0439999999995 C 257.361 583.1889999999995 258.392 595.3569999999995 259.38 606.5469999999996 C 255.053 625.5579999999995 247.096 640.0349999999996 235.509 649.9759999999995 C 225.96499999999997 658.1459999999995 214.87599999999998 659.6269999999995 202.24399999999997 654.4189999999995 C 181.903 592.464 194.042 524.932 223.532 467.621 z" stroke-linecap="round" />
</g>
		<g transform="matrix(0.5266421121 0 0 0.5266421121 -135.759098086 92.186296099)" id="siTRG7f9_KKBfM-w6xb2S"  >
<path style="stroke: none; stroke-width: 1; stroke-dasharray: none; stroke-linecap: butt; stroke-dashoffset: 0; stroke-linejoin: miter; stroke-miterlimit: 4; fill: rgb(254,252,242); fill-rule: nonzero; opacity: 1;"  transform=" translate(-142.2186773715, -575.0450848568)" d="M 179.464 550.051 C 169.61 556.033 159.925 562.437 150.409 569.2610000000001 C 148.87 570.3650000000001 147.195 570.7760000000001 145.385 570.4950000000001 C 144.832 570.4080000000001 144.386 570.0020000000001 144.25199999999998 569.4640000000002 C 142.98899999999998 564.2220000000002 146.14 556.1640000000002 148.652 551.7930000000001 C 148.893 551.3670000000001 148.742 550.8270000000001 148.31699999999998 550.5860000000001 C 147.99699999999999 550.4050000000001 147.599 550.4410000000001 147.31699999999998 550.6750000000002 C 140.009 556.6570000000002 133.968 563.4910000000002 129.19599999999997 571.1770000000001 C 126.52399999999997 575.4940000000001 124.08499999999997 581.1810000000002 121.87799999999997 588.2380000000002 C 120.01899999999998 594.1720000000001 118.30099999999997 600.1440000000001 116.72299999999997 606.1560000000002 C 115.67799999999997 610.1200000000002 110.44999999999997 619.2820000000002 105.20899999999997 616.3050000000002 C 98.65999999999997 612.5880000000002 103.27799999999998 595.1350000000002 104.99099999999997 589.5590000000002 C 106.12399999999997 585.8710000000002 108.20499999999997 581.6020000000002 111.23499999999997 576.7520000000002 C 113.75199999999997 572.7250000000001 116.25899999999997 568.6550000000002 118.75599999999997 564.5410000000002 C 136.57199999999997 547.0010000000002 157.68399999999997 538.7390000000001 181.68599999999998 533.2210000000001 C 182.09999999999997 533.1230000000002 182.51399999999998 533.3860000000001 182.60999999999999 533.8080000000001 C 182.635 533.916 182.636 534.0270000000002 182.61599999999999 534.1360000000001 L 179.464 550.051 z" stroke-linecap="round" />
</g>
		<g transform="matrix(0.5266421121 0 0 0.5266421121 -132.8042507965 125.5543789595)" id="9lZW-qemvlUlP1XUSf-KI"  >
<path style="stroke: none; stroke-width: 1; stroke-dasharray: none; stroke-linecap: butt; stroke-dashoffset: 0; stroke-linejoin: miter; stroke-miterlimit: 4; fill: rgb(238,190,123); fill-rule: nonzero; opacity: 1;"  transform=" translate(-147.8294084953, -638.4051582232)" d="M 179.464 550.051 C 177.209 563.99 176.081 578.37 176.081 593.19 C 176.081 593.663 175.94 594.128 175.67399999999998 594.5260000000001 C 172.60999999999999 599.201 161.06699999999998 619.3410000000001 166.599 623.7980000000001 C 170.12699999999998 626.6440000000001 175.166 620.4870000000001 176.63199999999998 617.9760000000001 C 176.82799999999997 617.6240000000001 177.27199999999996 617.5040000000001 177.62499999999997 617.7070000000001 C 177.83299999999997 617.8270000000001 177.97199999999998 618.041 177.99699999999999 618.2810000000001 C 181.00699999999998 646.1880000000001 189.42899999999997 672.455 203.262 697.081 C 203.901 698.1990000000001 204.307 699.564 203.93 700.885 C 201.568 709.132 200.99200000000002 717.53 202.202 726.077 C 202.27 726.542 202.062 726.769 201.578 726.759 C 177.823 726.246 156.21800000000002 720.893 136.76100000000002 710.7 C 100.69300000000003 691.8240000000001 85.68000000000002 649.368 93.68000000000002 610.585 C 97.31000000000002 592.9580000000001 105.66900000000003 577.61 118.75600000000003 564.542 C 116.25900000000003 568.6560000000001 113.75100000000003 572.727 111.23500000000003 576.753 C 108.20500000000003 581.6030000000001 106.12400000000002 585.8720000000001 104.99100000000003 589.5600000000001 C 103.27800000000003 595.1360000000001 98.66000000000003 612.589 105.20900000000003 616.306 C 110.45100000000004 619.283 115.67800000000003 610.1210000000001 116.72300000000003 606.157 C 118.30100000000003 600.1460000000001 120.01900000000003 594.173 121.87800000000003 588.239 C 124.08500000000002 581.182 126.52400000000003 575.495 129.19600000000003 571.178 C 133.96800000000002 563.492 140.00900000000001 556.658 147.31700000000004 550.676 C 147.69400000000005 550.364 148.25200000000004 550.417 148.56400000000005 550.7940000000001 C 148.79800000000006 551.0770000000001 148.83300000000006 551.4750000000001 148.65300000000005 551.7940000000001 C 146.14100000000005 556.1640000000001 142.99000000000004 564.2230000000001 144.25300000000004 569.4650000000001 C 144.38700000000003 570.0030000000002 144.83300000000006 570.4090000000001 145.38600000000005 570.4960000000001 C 147.19600000000005 570.777 148.87100000000007 570.3650000000001 150.41000000000005 569.2620000000001 C 159.925 562.437 169.609 556.033 179.464 550.051 z" stroke-linecap="round" />
</g>
		<g transform="matrix(0.5266421121 0 0 0.5266421121 -12.5508651533 143.8250031875)" id="t7q79w_mQfiHCiKNndkkH"  >
<path style="stroke: none; stroke-width: 1; stroke-dasharray: none; stroke-linecap: butt; stroke-dashoffset: 0; stroke-linejoin: miter; stroke-miterlimit: 4; fill: rgb(225,221,201); fill-rule: nonzero; opacity: 1;"  transform=" translate(-376.1692675387, -673.0978343465)" d="M 365.712 589.604 C 366.97999999999996 602.633 368.747 615.604 371.012 628.518 C 376.433 659.475 381.733 690.451 386.911 721.446 C 389.771 738.623 385.836 754.929 365.291 756.5840000000001 C 364.584 756.642 364.42 756.3710000000001 364.79699999999997 755.7710000000001 C 367.81699999999995 750.965 369.96599999999995 746.9860000000001 369.763 740.6270000000001 C 369.608 742.5820000000001 369.79699999999997 743.9910000000001 370.32899999999995 744.8520000000001 C 370.50399999999996 745.1310000000001 370.8709999999999 745.2150000000001 371.15 745.0400000000001 C 371.28999999999996 744.9520000000001 371.387 744.8100000000001 371.41799999999995 744.648 C 371.94999999999993 741.812 372.70099999999996 739.053 373.6689999999999 736.3720000000001 C 376.49999999999994 728.5310000000001 374.71399999999994 717.133 373.59599999999995 708.9730000000001 C 369.57899999999995 679.9040000000001 366.79599999999994 650.7280000000001 365.24699999999996 621.446 C 365.02399999999994 617.371 365.102 612.071 365.479 605.547 C 365.789 600.242 365.867 594.928 365.712 589.604 z" stroke-linecap="round" />
</g>
		<g transform="matrix(0.5266421121 0 0 0.5266421121 31.4147580792 147.1874709366)" id="lpCJakY0cH_RWB9S7dXtp"  >
<path style="stroke: none; stroke-width: 1; stroke-dasharray: none; stroke-linecap: butt; stroke-dashoffset: 0; stroke-linejoin: miter; stroke-miterlimit: 4; fill: rgb(225,221,201); fill-rule: nonzero; opacity: 1;"  transform=" translate(-459.6521911834, -679.4825644543)" d="M 467.961 602.338 C 469.384 610.4399999999999 469.98400000000004 616.3349999999999 469.762 620.0229999999999 C 468.029 649.334 466.321 669.7929999999999 464.636 681.3989999999999 C 461.887 700.3519999999999 459.98 715.2259999999999 458.915 726.0189999999999 C 458.334 731.8079999999999 460.183 736.8649999999999 464.46200000000005 741.1919999999999 C 464.77400000000006 741.5029999999999 464.92400000000004 741.9379999999999 464.869 742.3679999999999 C 464.76300000000003 743.2199999999999 465.05800000000005 743.7719999999999 465.75500000000005 744.0229999999999 C 466.2490000000001 744.2069999999999 466.52000000000004 744.0369999999999 466.56800000000004 743.5149999999999 L 466.85800000000006 739.9579999999999 C 466.67400000000004 745.8819999999998 468.38700000000006 751.2349999999999 471.99800000000005 756.0169999999998 C 472.30800000000005 756.4239999999999 472.201 756.6269999999998 471.67900000000003 756.6269999999998 C 460.07300000000004 756.6559999999998 452.41600000000005 751.7919999999998 448.708 742.0339999999999 C 446.83500000000004 737.1259999999999 446.84900000000005 727.9789999999999 447.634 723.4629999999999 C 454.661 683.088 461.437 642.713 467.961 602.338 z" stroke-linecap="round" />
</g>
		<g transform="matrix(0.5266421121 0 0 0.5266421121 -86.3198548635 142.4147896469)" id="eJ3sGcN9rLgDhtrE1Z8dF"  >
<path style="stroke: none; stroke-width: 1; stroke-dasharray: none; stroke-linecap: butt; stroke-dashoffset: 0; stroke-linejoin: miter; stroke-miterlimit: 4; fill: rgb(225,221,201); fill-rule: nonzero; opacity: 1;"  transform=" translate(-236.0950349331, -670.4200888565)" d="M 259.382 606.548 L 269.924 688.717 C 269.98999999999995 689.1759999999999 269.892 689.644 269.64799999999997 690.038 C 261.41999999999996 703.3870000000001 257.08299999999997 717.921 256.638 733.642 C 256.609 734.349 256.323 734.479 255.78099999999998 734.0340000000001 C 230.158 713.0670000000001 212.313 686.5290000000001 202.24599999999998 654.421 C 214.878 659.629 225.96699999999998 658.148 235.51099999999997 649.9780000000001 C 247.098 640.036 255.055 625.56 259.382 606.548 z" stroke-linecap="round" />
</g>
		<g transform="matrix(0.5266421121 0 0 0.5266421121 11.072315851 153.8408435804)" id="UkHerk3fO_CJez2X9ElT2"  >
<path style="stroke: none; stroke-width: 1; stroke-dasharray: none; stroke-linecap: butt; stroke-dashoffset: 0; stroke-linejoin: miter; stroke-miterlimit: 4; fill: rgb(225,221,201); fill-rule: nonzero; opacity: 1;"  transform=" translate(-421.0255, -692.1161394968)" d="M 451.844 635.995 C 446.849 656.855 441.878 677.909 436.932 699.157 C 433.055 715.899 429.048 731.754 434.101 747.436 C 434.213 747.7620000000001 434.04 748.1170000000001 433.714 748.23 C 433.642 748.255 433.567 748.266 433.491 748.264 L 401.21299999999997 748.191 C 400.55499999999995 748.191 400.32199999999995 747.8810000000001 400.51599999999996 747.2620000000001 C 403.44899999999996 737.437 403.87999999999994 727.345 401.80799999999994 716.988 C 397.9549999999999 697.754 394.0879999999999 680.388 390.20699999999994 664.8900000000001 C 414.4839999999999 670.3350000000002 433.82499999999993 656.1490000000001 447.13999999999993 637.3170000000001 C 447.866 636.29 449.434 635.85 451.844 635.995 z" stroke-linecap="round" />
</g>
		<g transform="matrix(0.5266421121 0 0 0.5266421121 120.3317521982 159.5719453368)" id="fVNhod-Ea8EKMe_haaRgi"  >
<path style="stroke: none; stroke-width: 1; stroke-dasharray: none; stroke-linecap: butt; stroke-dashoffset: 0; stroke-linejoin: miter; stroke-miterlimit: 4; fill: rgb(225,221,201); fill-rule: nonzero; opacity: 1;"  transform=" translate(-628.4897984997, -702.998485638)" d="M 626.476 705.851 C 624.698 706.202 623.542 707.929 623.893 709.707 C 623.9590000000001 710.04 624.076 710.361 624.24 710.658 C 629.341 719.883 628.33 727.613 621.205 733.846 C 616.5300000000001 737.926 611.215 737.824 605.364 737.04 C 604.822 736.962 604.633 736.658 604.798 736.125 C 606.947 729.436 607.533 722.612 606.555 715.652 C 606.478 715.1 606.5989999999999 714.5970000000001 606.918 714.142 C 616.966 700.2220000000001 625.005 685.2330000000001 631.0360000000001 669.1740000000001 C 631.225 668.6620000000001 631.793 668.4010000000001 632.3040000000001 668.5900000000001 C 632.3850000000001 668.6200000000001 632.4610000000001 668.6600000000002 632.5310000000001 668.7090000000002 C 655.022 684.6810000000002 662.152 720.9660000000001 633.0250000000001 734.9060000000002 C 632.6770000000001 735.0670000000001 632.2620000000001 734.9210000000002 632.0960000000001 734.5810000000001 C 631.9920000000001 734.3670000000001 632.0090000000001 734.1170000000001 632.1390000000001 733.9190000000001 C 636.5140000000001 726.9780000000001 637.1430000000001 719.7570000000001 634.0270000000002 712.2550000000001 C 632.545 708.697 630.585 705.038 626.476 705.851 z" stroke-linecap="round" />
</g>
		<g transform="matrix(0.5266421121 0 0 0.5266421121 -91.7748742311 172.5514710017)" id="teNowsoBtTqkr1eX9Y-Nl"  >
<path style="stroke: none; stroke-width: 1; stroke-dasharray: none; stroke-linecap: butt; stroke-dashoffset: 0; stroke-linejoin: miter; stroke-miterlimit: 4; fill: rgb(227,228,222); fill-rule: nonzero; opacity: 1;"  transform=" translate(-225.7369203002, -727.6443036741)" d="M 233.594 736.793 C 224.998 735.443 217.62199999999999 727.7620000000001 217.49099999999999 718.832 C 217.487 718.648 217.63299999999998 718.495 217.81699999999998 718.491 C 217.914 718.489 218.00599999999997 718.529 218.07099999999997 718.6 L 233.89799999999997 736.2420000000001 C 234.02099999999996 736.3800000000001 234.00899999999996 736.5910000000001 233.87099999999998 736.714 C 233.797 736.78 233.694 736.81 233.594 736.793 z" stroke-linecap="round" />
</g>
		<g transform="matrix(0.5266421121 0 0 0.5266421121 101.601083124 174.7390351347)" id="pv2POSXPY3PkJEhQ4mMyo"  >
<path style="stroke: none; stroke-width: 1; stroke-dasharray: none; stroke-linecap: butt; stroke-dashoffset: 0; stroke-linejoin: miter; stroke-miterlimit: 4; fill: rgb(225,221,201); fill-rule: nonzero; opacity: 1;"  transform=" translate(-592.923578777, -731.7981001189)" d="M 588.013 736.517 L 597.1310000000001 726.426 C 597.315 726.235 597.618 726.23 597.8090000000001 726.413 C 597.9290000000001 726.529 597.9810000000001 726.699 597.945 726.862 L 595.404 736.852 C 595.352 737.06 595.168 737.208 594.954 737.215 L 588.376 737.317 C 588.111 737.32 587.894 737.1080000000001 587.891 736.844 C 587.889 736.722 587.933 736.606 588.013 736.517 z" stroke-linecap="round" />
</g>
		<g transform="matrix(0.5266421121 0 0 0.5266421121 79.3011244571 180.1462257652)" id="XAklzmiBSURyXMCOiNYMC"  >
<path style="stroke: none; stroke-width: 1; stroke-dasharray: none; stroke-linecap: butt; stroke-dashoffset: 0; stroke-linejoin: miter; stroke-miterlimit: 4; fill: rgb(225,221,201); fill-rule: nonzero; opacity: 1;"  transform=" translate(-550.5799109339, -742.0653964598)" d="M 560.991 727.5 C 561.2379999999999 731.841 561.644 736.604 560.352 740.641 C 557.38 749.934 550.779 755.2579999999999 540.547 756.6129999999999 C 539.889 756.6999999999999 539.739 756.468 540.097 755.9159999999999 C 543.466 750.669 545.126 745.4079999999999 545.077 740.1329999999999 L 560.207 734.862 C 560.672 734.697 560.909 734.3679999999999 560.919 733.875 L 560.991 727.5 z" stroke-linecap="round" />
</g>
		<g transform="matrix(0.5266421121 0 0 0.5266421121 65.0628752203 182.3766926891)" id="n-fqILd2QBYrxzD837SbC"  >
<path style="stroke: none; stroke-width: 1; stroke-dasharray: none; stroke-linecap: butt; stroke-dashoffset: 0; stroke-linejoin: miter; stroke-miterlimit: 4; fill: rgb(225,221,201); fill-rule: nonzero; opacity: 1;"  transform=" translate(-523.544, -746.3006576983)" d="M 510.752 735.167 C 510.404 737.5 510.5 739.663 511.04200000000003 741.657 C 511.177 742.1700000000001 511.516 742.412 512.058 742.383 C 518.873 741.957 525.61 741.4730000000001 532.27 740.931 C 533.388 740.8290000000001 534.303 741.3960000000001 535.218 741.962 C 535.5759999999999 742.176 536.04 742.059 536.2539999999999 741.701 C 536.2629999999999 741.687 536.271 741.672 536.2779999999999 741.657 C 536.4809999999999 741.231 536.593 740.6740000000001 536.6119999999999 739.9870000000001 C 536.5349999999999 747.0920000000001 533.4759999999999 752.2710000000001 527.4349999999998 755.523 C 522.6289999999998 758.1080000000001 516.8649999999998 757.3820000000001 511.3469999999998 757.207 C 510.7659999999998 757.188 510.47599999999983 756.883 510.47599999999983 756.292 L 510.752 735.167 z" stroke-linecap="round" />
</g>
		<g transform="matrix(0.5266421121 0 0 0.5266421121 -60.7243503924 182.6311726111)" id="Xxiceft5-n4jaE6OOjq6s"  >
<path style="stroke: none; stroke-width: 1; stroke-dasharray: none; stroke-linecap: butt; stroke-dashoffset: 0; stroke-linejoin: miter; stroke-miterlimit: 4; fill: rgb(225,221,201); fill-rule: nonzero; opacity: 1;"  transform=" translate(-284.6963599753, -746.7838699522)" d="M 273.074 736.546 C 276.18100000000004 736.556 280.058 737.34 284.70500000000004 738.898 C 287.59900000000005 739.866 289.119 741.715 289.26400000000007 744.445 C 289.29300000000006 745.0160000000001 289.5830000000001 745.234 290.13500000000005 745.0980000000001 C 290.63800000000003 744.9720000000001 290.93800000000005 744.677 291.035 744.2120000000001 C 291.809 748.7520000000001 293.53200000000004 752.7250000000001 296.204 756.1330000000002 C 296.39 756.3740000000001 296.345 756.7210000000001 296.104 756.9070000000002 C 295.99199999999996 756.9930000000002 295.851 757.0330000000001 295.71 757.0190000000001 C 283.291 755.722 275.746 748.898 273.074 736.546 z" stroke-linecap="round" />
</g>
		<g transform="matrix(0.5266421121 0 0 0.5266421121 -27.6554283809 183.5555376474)" id="eXCjVsOiH62FTjwUJXEok"  >
<path style="stroke: none; stroke-width: 1; stroke-dasharray: none; stroke-linecap: butt; stroke-dashoffset: 0; stroke-linejoin: miter; stroke-miterlimit: 4; fill: rgb(225,221,201); fill-rule: nonzero; opacity: 1;"  transform=" translate(-347.4883799291, -748.539075271)" d="M 360.818 739.653 C 361.118 745.461 359.07099999999997 750.0980000000001 354.676 753.563 C 349.158 757.919 341.811 757.687 334.914 757.12 C 334.39099999999996 757.072 334.13 756.7860000000001 334.13 756.263 L 334.159 741.177 L 357.217 739.841 C 357.70099999999996 739.812 358.09799999999996 739.981 358.40799999999996 740.349 L 359.20699999999994 741.293 C 359.57499999999993 741.729 359.87999999999994 741.69 360.12199999999996 741.177 L 360.818 739.653 z" stroke-linecap="round" />
</g>
		<g transform="matrix(0.5266421121 0 0 0.5266421121 -45.9461723419 183.9325356693)" id="B9cW5nIZNyA7yRoXHGtt2"  >
<path style="stroke: none; stroke-width: 1; stroke-dasharray: none; stroke-linecap: butt; stroke-dashoffset: 0; stroke-linejoin: miter; stroke-miterlimit: 4; fill: rgb(225,221,201); fill-rule: nonzero; opacity: 1;"  transform=" translate(-312.7575, -749.2549276749)" d="M 299.704 741.004 L 325.81100000000004 741.338 L 325.76700000000005 756.337 C 325.76700000000005 756.85 325.51500000000004 757.121 325.01200000000006 757.15 C 318.91400000000004 757.557 311.82800000000003 758.341 306.76000000000005 754.5509999999999 C 302.066 751.047 299.713 746.531 299.704 741.004 z" stroke-linecap="round" />
</g>
		<g transform="matrix(0.5266421121 0 0 0.5266421121 46.7062377609 184.2919993352)" id="-Is2Ur4Oh8tQnTfMuIGHI"  >
<path style="stroke: none; stroke-width: 1; stroke-dasharray: none; stroke-linecap: butt; stroke-dashoffset: 0; stroke-linejoin: miter; stroke-miterlimit: 4; fill: rgb(225,221,201); fill-rule: nonzero; opacity: 1;"  transform=" translate(-488.688, -749.9374854454)" d="M 475.642 742.369 L 501.734 742.485 L 501.705 756.09 C 501.705 756.5640000000001 501.46799999999996 756.826 500.993 756.874 C 493.791 757.697 489.242 757.716 487.344 756.932 C 480.018 753.883 476.117 749.028 475.642 742.369 z" stroke-linecap="round" />
</g>
</g>
</g>
</svg>