<?xml version="1.0" encoding="UTF-8" standalone="no" ?>
<!DOCTYPE svg PUBLIC "-//W3C//DTD SVG 1.1//EN" "http://www.w3.org/Graphics/SVG/1.1/DTD/svg11.dtd">
<svg xmlns="http://www.w3.org/2000/svg" xmlns:xlink="http://www.w3.org/1999/xlink" version="1.1" width="300" height="380" viewBox="0 0 300 380" xml:space="preserve">
<desc>Created with Fabric.js 5.3.0</desc>
<defs>
</defs>
<g transform="matrix(4.1812610913 0 0 5.2974142086 150 190)" id="ivgFbenop2dd7bNN8UdZ5"  >
<path style="stroke: rgb(84,60,33); stroke-width: 0; stroke-dasharray: none; stroke-linecap: butt; stroke-dashoffset: 0; stroke-linejoin: miter; stroke-miterlimit: 4; fill: rgb(48,48,48); fill-rule: nonzero; opacity: 1;"  transform=" translate(-0.000005, 0.000005)" d="M -35.8374 -32.96427 C -35.8374 -34.55106 -34.20768 -35.8374 -32.19731 -35.8374 L 32.197320000000005 -35.8374 L 32.197320000000005 -35.8374 C 34.20768 -35.8374 35.837410000000006 -34.55106 35.837410000000006 -32.96427 L 35.837410000000006 32.964259999999996 L 35.837410000000006 32.964259999999996 C 35.837410000000006 34.55105 34.20769000000001 35.83739 32.197320000000005 35.83739 L -32.19731 35.83739 L -32.19731 35.83739 C -34.20767 35.83739 -35.8374 34.55105 -35.8374 32.964259999999996 z" stroke-linecap="round" />
</g>
<g transform="matrix(8.9069925187 0 0 10.3162548529 150 177.476033961)" id="l1pLVDLlZ0WB2IILGhVfB"  >
<path style="stroke: rgb(177,117,16); stroke-width: 0; stroke-dasharray: none; stroke-linecap: butt; stroke-dashoffset: 0; stroke-linejoin: miter; stroke-miterlimit: 4; fill: rgb(0,0,0); fill-rule: nonzero; opacity: 1;"  transform=" translate(-0.000005, 0)" d="M -15.44715 -14.80269 C -15.44715 -15.15862 -15.112960000000001 -15.44715 -14.70072 -15.44715 L 14.70073 -15.44715 L 14.70073 -15.44715 C 15.11297 -15.44715 15.44716 -15.158610000000001 15.44716 -14.80269 L 15.44716 14.80269 L 15.44716 14.80269 C 15.44716 15.15862 15.11297 15.44715 14.70073 15.44715 L -14.70072 15.44715 L -14.70072 15.44715 C -15.112960000000001 15.44715 -15.44715 15.158610000000001 -15.44715 14.80269 z" stroke-linecap="round" />
</g>
<g transform="matrix(-0.6096001814 0 0 -0.2784632987 150 358.828245806)" id="dsNPQpCT9p0h7Mjc0Veol"  >
<path style="stroke: none; stroke-width: 1; stroke-dasharray: none; stroke-linecap: butt; stroke-dashoffset: 0; stroke-linejoin: miter; stroke-miterlimit: 4; fill: rgb(0,0,0); fill-rule: nonzero; opacity: 1;"  transform=" translate(-40, -40)" d="M 60 40 L 80 80 L 40 80 L 0 80 L 20 40 L 40 0 L 60 40 z" stroke-linecap="round" />
</g>
<g transform="matrix(1.5887933658 0 0 4.0688388622 150 133.1460322054)" id="8ELFsNdI7EJCd_jR-QLDE"  >
<path style="stroke: rgb(117,155,31); stroke-width: 0; stroke-dasharray: none; stroke-linecap: butt; stroke-dashoffset: 0; stroke-linejoin: miter; stroke-miterlimit: 4; fill: rgb(0,0,0); fill-rule: nonzero; opacity: 1;"  transform=" translate(0.00001, -0.000005)" d="M -30.12048 -26.97977 C -30.12048 -28.71434 -26.5194 -30.120479999999997 -22.07725 -30.120479999999997 L 22.077240000000003 -30.120479999999997 L 22.077240000000003 -30.120479999999997 C 26.519400000000005 -30.120479999999997 30.120470000000005 -28.714339999999996 30.120470000000005 -26.97977 L 30.120470000000005 29.115670000000005 L 30.120470000000005 29.115670000000005 C 30.120470000000005 29.670610000000003 28.968370000000004 30.120490000000004 27.547180000000004 30.120490000000004 L -27.547199999999997 30.120490000000004 L -27.547199999999997 30.120490000000004 C -28.968389999999996 30.120490000000004 -30.120489999999997 29.670620000000003 -30.120489999999997 29.115670000000005 z" stroke-linecap="round" />
</g>
<g transform="matrix(8.5584030562 0 0 8.172937694 150.0000135682 204.5631159935)" id="fkee8zDT-48RbOXW6BPZz"  >
<path style="stroke: rgb(177,117,16); stroke-width: 0; stroke-dasharray: none; stroke-linecap: butt; stroke-dashoffset: 0; stroke-linejoin: miter; stroke-miterlimit: 4; fill: rgb(87,87,87); fill-rule: nonzero; opacity: 1;"  transform=" translate(0, 0)" d="M -15.44715 -14.63368 C -15.44715 -15.08295 -15.099350000000001 -15.44715 -14.67032 -15.44715 L 14.67032 -15.44715 L 14.67032 -15.44715 C 15.099350000000001 -15.44715 15.44715 -15.08295 15.44715 -14.63368 L 15.44715 14.63368 L 15.44715 14.63368 C 15.44715 15.08295 15.099350000000001 15.44715 14.67032 15.44715 L -14.67032 15.44715 L -14.67032 15.44715 C -15.099350000000001 15.44715 -15.44715 15.08295 -15.44715 14.63368 z" stroke-linecap="round" />
</g>
<g transform="matrix(8.558403349 0 0 2.7159184234 150 65.6001833098)" id="3PAD06Qo52rsrjikDYR4_"  >
<path style="stroke: rgb(177,117,16); stroke-width: 0; stroke-dasharray: none; stroke-linecap: butt; stroke-dashoffset: 0; stroke-linejoin: miter; stroke-miterlimit: 4; fill: rgb(214,0,0); fill-rule: nonzero; opacity: 1;"  transform=" translate(-0.00001, -0.000005)" d="M -15.44715 -12.99919 C -15.44715 -13.648430000000001 -15.365310000000001 -14.271080000000001 -15.21962 -14.73016 C -15.07394 -15.18924 -14.87634 -15.44715 -14.67031 -15.44715 L 14.67033 -15.44715 L 14.67033 -15.44715 C 14.87636 -15.44715 15.07395 -15.18924 15.21964 -14.730160000000001 C 15.36532 -14.271080000000001 15.44717 -13.648430000000001 15.44717 -12.999190000000002 L 15.44717 12.999199999999998 L 15.44717 12.999199999999998 C 15.44717 14.351169999999998 15.09937 15.447159999999998 14.67034 15.447159999999998 L -14.670300000000001 15.447159999999998 L -14.670300000000001 15.447159999999998 C -15.099330000000002 15.447159999999998 -15.447130000000001 14.351169999999998 -15.447130000000001 12.999199999999998 z" stroke-linecap="round" />
</g>
<g transform="matrix(5.2616785468 0 0 1 150.0000090455 82.4277665876)" id="e6vtfBE7JaeNtI_Yoz1Ke"  >
<path style="stroke: rgb(180,22,191); stroke-width: 0; stroke-dasharray: none; stroke-linecap: butt; stroke-dashoffset: 0; stroke-linejoin: miter; stroke-miterlimit: 4; fill: rgb(214,0,0); fill-rule: nonzero; opacity: 1;"  transform=" translate(0, 0)" d="M -25.12563 -25.12563 L 25.12563 -25.12563 L 25.12563 25.12563 L -25.12563 25.12563 z" stroke-linecap="round" />
</g>
</svg>