<?xml version="1.0" encoding="UTF-8" standalone="no" ?>
<!DOCTYPE svg PUBLIC "-//W3C//DTD SVG 1.1//EN" "http://www.w3.org/Graphics/SVG/1.1/DTD/svg11.dtd">
<svg xmlns="http://www.w3.org/2000/svg" xmlns:xlink="http://www.w3.org/1999/xlink" version="1.1" width="174.65475223395612" height="174.65353371242892" viewBox="0.2030869212022708 0.203086921202285 174.65475223395612 174.65353371242892" xml:space="preserve">
<desc>Created with Fabric.js 5.3.0</desc>
<defs>
</defs>
<g transform="matrix(0.4061738424 0 0 0.4061738424 87.5304630382 87.5298537774)" id="gzjvdCmmUAHD894HpCT3a"  >
<g style=""   >
		<g transform="matrix(1 0 0 1 0 0.0015)" id="CvXGrVxTWbepFrtOIcrTF"  >
<path style="stroke: none; stroke-width: 1; stroke-dasharray: none; stroke-linecap: butt; stroke-dashoffset: 0; stroke-linejoin: miter; stroke-miterlimit: 4; fill: rgb(190,190,190); fill-rule: nonzero; opacity: 1;"  transform=" translate(-60.812, -60.812)" d="M 0 60.812 C 0 27.226459999999996 27.22646 0 60.812 0 C 94.39753999999999 0 121.624 27.22646 121.624 60.812 C 121.624 94.39753999999999 94.39753999999999 121.624 60.812 121.624 C 27.226459999999996 121.624 0 94.39753999999999 0 60.812 z" stroke-linecap="round" />
</g>
		<g transform="matrix(1 0 0 1 0 0)" id="dhl01au1PH5weas8k4L36"  >
<path style="stroke: none; stroke-width: 1; stroke-dasharray: none; stroke-linecap: butt; stroke-dashoffset: 0; stroke-linejoin: miter; stroke-miterlimit: 4; fill: rgb(70,70,70); fill-rule: nonzero; opacity: 1;"  transform=" translate(-300, -299.9985)" d="M 514.5 332.553 L 514.5 267.448 L 465.303 261.298 C 461.05 243.058 453.848 225.953 444.239 210.5 L 474.69399999999996 171.345 L 428.657 125.30799999999999 L 389.5 155.762 C 374.047 146.153 356.942 138.95 338.702 134.697 L 332.553 85.5 L 267.447 85.5 L 261.298 134.696 C 243.05700000000002 138.95 225.952 146.152 210.498 155.761 L 171.344 125.306 L 125.30699999999999 171.343 L 155.761 210.498 C 146.151 225.951 138.95 243.057 134.696 261.296 L 85.5 267.44599999999997 L 85.5 332.551 L 134.696 338.7 C 138.95 356.941 146.151 374.046 155.761 389.5 L 125.306 428.653 L 171.343 474.69100000000003 L 210.498 444.23600000000005 C 225.951 453.845 243.05599999999998 461.047 261.296 465.30000000000007 L 267.445 514.4970000000001 L 332.551 514.4970000000001 L 338.7 465.30000000000007 C 356.941 461.04600000000005 374.046 453.8450000000001 389.498 444.23600000000005 L 428.653 474.69100000000003 L 474.69 428.653 L 444.239 389.5 C 453.84799999999996 374.048 461.04999999999995 356.943 465.303 338.702 L 514.5 332.553 z M 300 399.389 C 245.109 399.389 200.611 354.891 200.611 300 C 200.611 245.10899999999998 245.10899999999998 200.611 300 200.611 C 354.891 200.611 399.389 245.10899999999998 399.389 300 C 399.389 354.891 354.891 399.389 300 399.389 z" stroke-linecap="round" />
</g>
</g>
</g>
</svg>