<?xml version="1.0" encoding="UTF-8" standalone="no" ?>
<!DOCTYPE svg PUBLIC "-//W3C//DTD SVG 1.1//EN" "http://www.w3.org/Graphics/SVG/1.1/DTD/svg11.dtd">
<svg xmlns="http://www.w3.org/2000/svg" xmlns:xlink="http://www.w3.org/1999/xlink" version="1.1" width="230.14297318997603" height="288.38342810449586" viewBox="151.1754671012119 65.20996940140009 230.14297318997603 288.38342810449586" xml:space="preserve">
<desc>Created with Fabric.js 5.3.0</desc>
<defs>
</defs>
<g transform="matrix(0.4061738424 0 0 0.4892195925 266.2469536962 222.7246889681)" id="Yc7vRrFNxQqZiZdI_b94p"  >
<path style="stroke: none; stroke-width: 1; stroke-dasharray: none; stroke-linecap: butt; stroke-dashoffset: 0; stroke-linejoin: miter; stroke-miterlimit: 4; fill: rgb(255,223,224); fill-rule: nonzero; opacity: 1;"  transform=" translate(-299.9975, -335.588)" d="M 577.565 597.795 L 22.43 597.795 L 29.368 79.33499999999992 L 570.62 73.38099999999993 L 577.565 597.795 z" stroke-linecap="round" />
</g>
<g transform="matrix(0.4061738424 0 0 0.4061738424 268.2652743319 112.8398671841)" id="v2ihTLMcXe3a0aLt_CF15"  >
<path style="stroke: none; stroke-width: 1; stroke-dasharray: none; stroke-linecap: butt; stroke-dashoffset: 0; stroke-linejoin: miter; stroke-miterlimit: 4; fill: rgb(206,153,161); fill-rule: nonzero; opacity: 1;"  transform=" translate(-304.9691054052, -116.7648083423)" d="M 344.93 131.126 C 340.107 144.526 318.31100000000004 148.947 296.243 141.029 C 274.176 133.091 260.188 115.80699999999999 265.012 102.417 C 269.83 89.012 291.621 84.575 313.688 92.504 C 335.756 100.432 349.743 117.726 344.93 131.126 z" stroke-linecap="round" />
</g>
<g transform="matrix(0.4061738424 0 0 0.4061738424 275.2688491132 86.0225201729)" id="fL-VvIImMse1X3lVVU1Dc"  >
<path style="stroke: none; stroke-width: 1; stroke-dasharray: none; stroke-linecap: butt; stroke-dashoffset: 0; stroke-linejoin: miter; stroke-miterlimit: 4; fill: rgb(129,147,252); fill-rule: nonzero; opacity: 1;"  transform=" translate(-322.2119065169, -50.7405)" d="M 354.491 59.12 C 355.861 62.513 356.64 67.32 354.924 73.547 C 354.536 74.953 354.024 76.429 353.35999999999996 77.97999999999999 C 352.47299999999996 80.047 351.33 82.24 349.859 84.56499999999998 C 344.604 92.86499999999998 335.89099999999996 97.06999999999998 323.95799999999997 97.06999999999998 C 321.933 97.06999999999998 319.95599999999996 96.94299999999998 318.08 96.73999999999998 C 316.37399999999997 96.55499999999998 314.756 96.30799999999998 313.262 96.03199999999998 C 307.85 95.03299999999999 304.102 93.67299999999999 304.047 93.67299999999999 C 304.01300000000003 93.65199999999999 303.79 93.51999999999998 303.43800000000005 93.29899999999999 C 302.71200000000005 92.842 301.38400000000007 91.96799999999999 299.72600000000006 90.713 C 296.35800000000006 88.16499999999999 291.65700000000004 84.05999999999999 287.96600000000007 78.69699999999999 C 287.01500000000004 77.31599999999999 286.1360000000001 75.85099999999998 285.36100000000005 74.30899999999998 C 282.82500000000005 69.26499999999999 281.43700000000007 63.39599999999999 282.629 56.87999999999998 C 285.221 42.73999999999998 294.488 37.948999999999984 300.81 36.33399999999998 C 300.968 43.204999999999984 303.847 55.55799999999998 321.025 62.86399999999998 C 326.07 64.99999999999999 331.008 66.09499999999998 335.691 66.10499999999999 C 344.559 66.105 350.807 62.309 354.491 59.12 z M 322.747 58.8 C 327.244 60.709999999999994 331.60400000000004 61.684 335.689 61.684 C 343.84700000000004 61.684 349.355 57.913 352.293 55.162 C 352.936 54.561 353.447 54.016999999999996 353.844 53.563 C 354.23699999999997 53.114000000000004 354.524 52.75 354.677 52.544000000000004 L 355.041 51.580000000000005 L 355.872 49.382000000000005 C 355.30400000000003 49.784000000000006 354.719 50.166000000000004 354.117 50.52700000000001 C 353.46500000000003 50.918000000000006 352.797 51.28600000000001 352.10900000000004 51.62700000000001 C 351.26500000000004 52.04400000000001 350.398 52.42500000000001 349.50500000000005 52.76200000000001 C 346.172 54.02000000000001 342.52400000000006 54.71000000000001 338.708 54.71000000000001 C 335.357 54.71000000000001 331.995 54.17200000000001 328.71500000000003 53.123000000000005 C 319.971 50.324000000000005 313.288 44.221000000000004 309.867 36.909000000000006 C 309.432 35.979000000000006 309.04900000000004 35.031000000000006 308.721 34.06700000000001 C 308.424 33.18800000000001 308.173 32.297000000000004 307.969 31.396000000000008 C 307.769 30.512000000000008 307.615 29.619000000000007 307.509 28.71900000000001 L 306.24 31.10900000000001 L 305.435 32.62400000000001 C 305.402 32.79500000000001 305.358 33.05000000000001 305.315 33.36400000000001 C 305.239 33.91600000000001 305.166 34.67300000000001 305.149 35.59300000000001 C 305.051 41.042 306.979 52.098 322.747 58.8 z M 343.915 5.773 C 341.081 4.8629999999999995 338.166 4.411 335.26300000000003 4.411 C 327.21900000000005 4.411 320.05300000000005 7.942 315.802 13.62 C 315.35400000000004 14.218 314.947 14.844999999999999 314.56600000000003 15.489999999999998 C 314.19000000000005 16.127 313.846 16.782999999999998 313.54100000000005 17.462 C 313.23100000000005 18.149 312.946 18.848 312.71400000000006 19.575 C 311.2250000000001 24.227 311.5160000000001 29.070999999999998 313.2130000000001 33.504 C 313.5920000000001 34.492 314.0390000000001 35.46 314.55500000000006 36.400999999999996 C 315.1670000000001 37.519 315.8740000000001 38.598 316.6670000000001 39.62799999999999 C 319.8680000000001 43.78399999999999 324.4800000000001 47.132999999999996 330.0780000000001 48.92699999999999 C 332.9070000000001 49.831999999999994 335.8070000000001 50.29899999999999 338.7100000000001 50.29899999999999 C 340.0450000000001 50.29899999999999 341.3560000000001 50.20099999999999 342.6330000000001 50.01299999999999 C 343.9360000000001 49.82199999999999 345.2020000000001 49.532999999999994 346.42500000000007 49.15899999999999 C 347.44000000000005 48.84899999999999 348.4190000000001 48.47399999999999 349.36600000000004 48.04699999999999 C 354.39900000000006 45.77999999999999 358.40200000000004 41.92299999999999 360.53800000000007 37.03199999999999 C 360.80800000000005 36.41399999999999 361.0570000000001 35.78399999999999 361.26500000000004 35.13499999999999 C 361.283 35.07899999999999 361.29600000000005 35.02199999999999 361.314 34.965999999999994 C 361.538 34.24399999999999 361.721 33.51899999999999 361.86100000000005 32.791 C 364.025 21.555 356.421 9.783 343.915 5.773 z" stroke-linecap="round" />
</g>
<g transform="matrix(0.4061738424 0 0 0.4061738424 266.2469536962 209.4016834536)" id="WjBZ-_So5gnqT_2oHr0i9"  >
<path style="stroke: none; stroke-width: 1; stroke-dasharray: none; stroke-linecap: butt; stroke-dashoffset: 0; stroke-linejoin: miter; stroke-miterlimit: 4; fill: rgb(68,68,68); fill-rule: nonzero; opacity: 1;"  transform=" translate(0, 0)" d="M 272.833 -281.144 L 272.80300000000005 -283.345 L 59.48500000000004 -281.00300000000004 C 61.32100000000004 -288.76400000000007 59.792000000000044 -294.706 57.76000000000004 -298.72600000000006 C 58.18200000000004 -299.24600000000004 58.42000000000004 -299.58900000000006 58.47000000000004 -299.66400000000004 L 64.55700000000004 -315.65600000000006 C 64.89400000000005 -316.42300000000006 65.99800000000005 -319.98600000000005 65.99800000000005 -319.98600000000005 C 69.16100000000004 -333.648 60.23300000000005 -348.12500000000006 45.25600000000004 -352.922 C 41.98500000000004 -353.978 38.62900000000004 -354.5 35.26300000000004 -354.5 C 25.37900000000004 -354.5 16.607000000000042 -349.916 11.630000000000042 -342.616 L 10.055000000000042 -339.991 L 1.3880000000000425 -323.671 L 1.1930000000000425 -323.153 C 1.1890000000000425 -323.137 1.1590000000000424 -322.994 1.1170000000000424 -322.76300000000003 C -6.272999999999957 -321.23100000000005 -18.479999999999958 -316.026 -21.702999999999957 -298.408 C -22.949999999999957 -291.588 -21.839999999999957 -285.463 -19.548999999999957 -280.136 L -272.801 -277.35600000000005 L -282.806 354.49999999999994 L 282.806 354.49999999999994 z M -17.373 -297.619 C -14.781 -311.759 -5.514000000000001 -316.55 0.8079999999999998 -318.165 C 0.9659999999999999 -311.29400000000004 3.8449999999999998 -298.94100000000003 21.023 -291.635 C 26.067999999999998 -289.49899999999997 31.006 -288.404 35.689 -288.394 C 44.558 -288.394 50.806 -292.19100000000003 54.491 -295.38 C 55.861 -291.987 56.64 -287.18 54.924 -280.953 C 54.536 -279.54699999999997 54.024 -278.07099999999997 53.36 -276.52 C 52.473 -274.453 51.33 -272.26 49.859 -269.935 C 44.604 -261.635 35.891000000000005 -257.43 23.958000000000002 -257.43 C 21.933000000000003 -257.43 19.956000000000003 -257.557 18.080000000000002 -257.76 C 16.374000000000002 -257.945 14.756000000000002 -258.192 13.262000000000002 -258.468 C 7.850000000000002 -259.46700000000004 4.102000000000002 -260.827 4.047000000000002 -260.827 C 4.013000000000003 -260.848 3.7900000000000023 -260.98 3.4380000000000024 -261.201 C 2.7120000000000024 -261.658 1.3840000000000026 -262.53200000000004 -0.2739999999999978 -263.78700000000003 C -3.6419999999999977 -266.33500000000004 -8.342999999999998 -270.44000000000005 -12.033999999999997 -275.80300000000005 C -12.984999999999998 -277.184 -13.863999999999997 -278.64900000000006 -14.638999999999998 -280.19100000000003 C -17.176 -285.23400000000004 -18.563999999999997 -291.103 -17.372999999999998 -297.619 z M 5.438 -321.877 L 6.242999999999999 -323.392 L 7.512 -325.782 C 7.617999999999999 -324.883 7.771999999999999 -323.99 7.9719999999999995 -323.10499999999996 C 8.176 -322.20399999999995 8.427 -321.313 8.724 -320.43399999999997 C 9.051 -319.46999999999997 9.435 -318.52099999999996 9.870000000000001 -317.592 C 13.291 -310.279 19.974 -304.176 28.718 -301.378 C 31.998 -300.328 35.361 -299.791 38.711 -299.791 C 42.525999999999996 -299.791 46.175 -300.481 49.507999999999996 -301.739 C 50.400999999999996 -302.075 51.267999999999994 -302.45599999999996 52.111999999999995 -302.87399999999997 C 52.8 -303.21399999999994 53.46699999999999 -303.582 54.12 -303.974 C 54.721999999999994 -304.335 55.306999999999995 -304.716 55.875 -305.11899999999997 L 55.044 -302.921 L 54.68 -301.957 C 54.527 -301.751 54.24 -301.387 53.847 -300.938 C 53.451 -300.484 52.939 -299.94 52.296 -299.339 C 49.358 -296.588 43.851 -292.817 35.692 -292.817 C 31.607 -292.817 27.247 -293.79200000000003 22.75 -295.701 C 6.981999999999999 -302.403 5.0539999999999985 -313.459 5.154 -318.909 C 5.171 -319.828 5.244 -320.585 5.32 -321.138 C 5.36 -321.45099999999996 5.404 -321.70599999999996 5.438000000000001 -321.87699999999995 z M 15.802 -340.879 C 20.053 -346.557 27.219 -350.088 35.263 -350.088 C 38.166 -350.088 41.080999999999996 -349.636 43.915 -348.726 C 56.421 -344.716 64.025 -332.944 61.858999999999995 -321.70799999999997 C 61.718999999999994 -320.97999999999996 61.535999999999994 -320.255 61.312 -319.53299999999996 C 61.294 -319.477 61.281 -319.41999999999996 61.263 -319.364 C 61.055 -318.714 60.806 -318.084 60.536 -317.467 C 58.4 -312.57599999999996 54.397 -308.719 49.364000000000004 -306.452 C 48.417 -306.025 47.437000000000005 -305.65 46.423 -305.34 C 45.2 -304.96599999999995 43.934000000000005 -304.67699999999996 42.631 -304.486 C 41.354 -304.298 40.043 -304.2 38.708 -304.2 C 35.805 -304.2 32.905 -304.667 30.076 -305.572 C 24.478 -307.366 19.866 -310.716 16.665 -314.871 C 15.872 -315.90099999999995 15.165 -316.97999999999996 14.552999999999999 -318.09799999999996 C 14.036999999999999 -319.03899999999993 13.59 -320.00699999999995 13.210999999999999 -320.99499999999995 C 11.514 -325.42799999999994 11.222999999999999 -330.27199999999993 12.711999999999998 -334.9239999999999 C 12.943999999999997 -335.6509999999999 13.229999999999999 -336.3499999999999 13.538999999999998 -337.0369999999999 C 13.844999999999997 -337.7159999999999 14.187999999999999 -338.3719999999999 14.563999999999998 -339.0089999999999 C 14.945999999999998 -339.6549999999999 15.354 -340.2809999999999 15.801999999999998 -340.8789999999999 z M 1.751 -257.1 C 1.9549999999999998 -256.97900000000004 5.704 -255.52700000000002 10.626 -254.48300000000003 L 4.332999999999999 -244.96800000000002 L -1.9530000000000003 -248.09300000000002 z M -268.451 -272.985 L -17.312000000000012 -275.744 C -12.827000000000012 -268.17900000000003 -6.265000000000011 -262.644 -2.001000000000012 -259.57800000000003 L -7.575000000000012 -245.98400000000004 L 5.839999999999987 -239.27200000000005 L 15.356999999999987 -253.64800000000005 C 18.01399999999999 -253.27100000000004 20.921999999999986 -253.01300000000006 23.957999999999988 -253.01300000000006 C 37.30299999999999 -253.01300000000006 47.54799999999999 -258.04800000000006 53.58199999999999 -267.58400000000006 C 55.603999999999985 -270.7800000000001 57.075999999999986 -273.7730000000001 58.128999999999984 -276.57400000000007 L 268.44199999999995 -278.88500000000005 L 278.06749999999994 348.06699999999995 L -278.06750000000005 348.06699999999995 z" stroke-linecap="round" />
</g>
</svg>