<?xml version="1.0" encoding="UTF-8" standalone="no" ?>
<!DOCTYPE svg PUBLIC "-//W3C//DTD SVG 1.1//EN" "http://www.w3.org/Graphics/SVG/1.1/DTD/svg11.dtd">
<svg xmlns="http://www.w3.org/2000/svg" xmlns:xlink="http://www.w3.org/1999/xlink" version="1.1" width="35.95323014973856" height="51.7726915514358" viewBox="88.94267268352598 378.8473896288698 35.95323014973856 51.7726915514358" xml:space="preserve">
<desc>Created with Fabric.js 5.3.0</desc>
<defs>
</defs>
<g transform="matrix(0.3285885798 0 0 0.3285885798 102.5491446282 421.1915862539)" id="8DU8hEml-plVTay7XsDZr"  >
<path style="stroke: none; stroke-width: 1; stroke-dasharray: none; stroke-linecap: butt; stroke-dashoffset: 0; stroke-linejoin: miter; stroke-miterlimit: 4; fill: rgb(0,0,0); fill-opacity: 0.47; fill-rule: nonzero; opacity: 1;"  transform=" translate(-304.9691054052, -116.7648083423)" d="M 344.93 131.126 C 340.107 144.526 318.31100000000004 148.947 296.243 141.029 C 274.176 133.091 260.188 115.80699999999999 265.012 102.417 C 269.83 89.012 291.621 84.575 313.688 92.504 C 335.756 100.432 349.743 117.726 344.93 131.126 z" stroke-linecap="round" />
</g>
<g transform="matrix(0.3670081055 0 0 0.3670081055 108.5279339731 397.4346370909)" id="aQZwdalAT7wO-H-YCM7Eh"  >
<path style="stroke: none; stroke-width: 1; stroke-dasharray: none; stroke-linecap: butt; stroke-dashoffset: 0; stroke-linejoin: miter; stroke-miterlimit: 4; fill: rgb(128,159,255); fill-rule: nonzero; opacity: 1;"  transform=" translate(-322.2119065169, -50.7405)" d="M 354.491 59.12 C 355.861 62.513 356.64 67.32 354.924 73.547 C 354.536 74.953 354.024 76.429 353.35999999999996 77.97999999999999 C 352.47299999999996 80.047 351.33 82.24 349.859 84.56499999999998 C 344.604 92.86499999999998 335.89099999999996 97.06999999999998 323.95799999999997 97.06999999999998 C 321.933 97.06999999999998 319.95599999999996 96.94299999999998 318.08 96.73999999999998 C 316.37399999999997 96.55499999999998 314.756 96.30799999999998 313.262 96.03199999999998 C 307.85 95.03299999999999 304.102 93.67299999999999 304.047 93.67299999999999 C 304.01300000000003 93.65199999999999 303.79 93.51999999999998 303.43800000000005 93.29899999999999 C 302.71200000000005 92.842 301.38400000000007 91.96799999999999 299.72600000000006 90.713 C 296.35800000000006 88.16499999999999 291.65700000000004 84.05999999999999 287.96600000000007 78.69699999999999 C 287.01500000000004 77.31599999999999 286.1360000000001 75.85099999999998 285.36100000000005 74.30899999999998 C 282.82500000000005 69.26499999999999 281.43700000000007 63.39599999999999 282.629 56.87999999999998 C 285.221 42.73999999999998 294.488 37.948999999999984 300.81 36.33399999999998 C 300.968 43.204999999999984 303.847 55.55799999999998 321.025 62.86399999999998 C 326.07 64.99999999999999 331.008 66.09499999999998 335.691 66.10499999999999 C 344.559 66.105 350.807 62.309 354.491 59.12 z M 322.747 58.8 C 327.244 60.709999999999994 331.60400000000004 61.684 335.689 61.684 C 343.84700000000004 61.684 349.355 57.913 352.293 55.162 C 352.936 54.561 353.447 54.016999999999996 353.844 53.563 C 354.23699999999997 53.114000000000004 354.524 52.75 354.677 52.544000000000004 L 355.041 51.580000000000005 L 355.872 49.382000000000005 C 355.30400000000003 49.784000000000006 354.719 50.166000000000004 354.117 50.52700000000001 C 353.46500000000003 50.918000000000006 352.797 51.28600000000001 352.10900000000004 51.62700000000001 C 351.26500000000004 52.04400000000001 350.398 52.42500000000001 349.50500000000005 52.76200000000001 C 346.172 54.02000000000001 342.52400000000006 54.71000000000001 338.708 54.71000000000001 C 335.357 54.71000000000001 331.995 54.17200000000001 328.71500000000003 53.123000000000005 C 319.971 50.324000000000005 313.288 44.221000000000004 309.867 36.909000000000006 C 309.432 35.979000000000006 309.04900000000004 35.031000000000006 308.721 34.06700000000001 C 308.424 33.18800000000001 308.173 32.297000000000004 307.969 31.396000000000008 C 307.769 30.512000000000008 307.615 29.619000000000007 307.509 28.71900000000001 L 306.24 31.10900000000001 L 305.435 32.62400000000001 C 305.402 32.79500000000001 305.358 33.05000000000001 305.315 33.36400000000001 C 305.239 33.91600000000001 305.166 34.67300000000001 305.149 35.59300000000001 C 305.051 41.042 306.979 52.098 322.747 58.8 z M 343.915 5.773 C 341.081 4.8629999999999995 338.166 4.411 335.26300000000003 4.411 C 327.21900000000005 4.411 320.05300000000005 7.942 315.802 13.62 C 315.35400000000004 14.218 314.947 14.844999999999999 314.56600000000003 15.489999999999998 C 314.19000000000005 16.127 313.846 16.782999999999998 313.54100000000005 17.462 C 313.23100000000005 18.149 312.946 18.848 312.71400000000006 19.575 C 311.2250000000001 24.227 311.5160000000001 29.070999999999998 313.2130000000001 33.504 C 313.5920000000001 34.492 314.0390000000001 35.46 314.55500000000006 36.400999999999996 C 315.1670000000001 37.519 315.8740000000001 38.598 316.6670000000001 39.62799999999999 C 319.8680000000001 43.78399999999999 324.4800000000001 47.132999999999996 330.0780000000001 48.92699999999999 C 332.9070000000001 49.831999999999994 335.8070000000001 50.29899999999999 338.7100000000001 50.29899999999999 C 340.0450000000001 50.29899999999999 341.3560000000001 50.20099999999999 342.6330000000001 50.01299999999999 C 343.9360000000001 49.82199999999999 345.2020000000001 49.532999999999994 346.42500000000007 49.15899999999999 C 347.44000000000005 48.84899999999999 348.4190000000001 48.47399999999999 349.36600000000004 48.04699999999999 C 354.39900000000006 45.77999999999999 358.40200000000004 41.92299999999999 360.53800000000007 37.03199999999999 C 360.80800000000005 36.41399999999999 361.0570000000001 35.78399999999999 361.26500000000004 35.13499999999999 C 361.283 35.07899999999999 361.29600000000005 35.02199999999999 361.314 34.965999999999994 C 361.538 34.24399999999999 361.721 33.51899999999999 361.86100000000005 32.791 C 364.025 21.555 356.421 9.783 343.915 5.773 z" stroke-linecap="round" />
</g>
<g transform="matrix(0.3643201004 0 0 0.3643201004 108.5279339731 400.0194879414)" id="kB544_MINrYfI3_THPdVJ"  >
<path style="stroke: none; stroke-width: 1; stroke-dasharray: none; stroke-linecap: butt; stroke-dashoffset: 0; stroke-linejoin: miter; stroke-miterlimit: 4; fill: rgb(32,32,32); fill-rule: nonzero; opacity: 1;"  transform=" translate(0, 0)" d="M -36.84437 24.72768 L -20.454369999999997 38.418 L 2.8570700000000038 42.403 C 2.8570700000000038 42.403 14.783990000000005 42.21908 23.050630000000005 36.70983 C 31.317270000000008 31.200579999999995 35.92363 20.365999999999996 35.92363 20.365999999999996 L 37.279630000000004 15.882999999999996 C 39.11563 8.121999999999996 37.58663000000001 2.179999999999996 35.55463 -1.8400000000000034 C 35.97663 -2.3600000000000034 36.21463 -2.7030000000000034 36.264630000000004 -2.778000000000003 L 42.35163 -18.770000000000003 C 42.68863 -19.537000000000003 43.79263 -23.1 43.79263 -23.1 C 46.95563 -36.762 38.02763 -51.239000000000004 23.05063 -56.036 C 19.77963 -57.092 16.423630000000003 -57.614000000000004 13.057630000000001 -57.614000000000004 C 3.173630000000001 -57.614000000000004 -5.598369999999997 -53.03 -10.575369999999998 -45.730000000000004 L -12.150369999999997 -43.105000000000004 L -20.817369999999997 -26.785000000000004 L -21.012369999999997 -26.267000000000003 C -21.01637 -26.251000000000005 -21.046369999999996 -26.108000000000004 -21.088369999999998 -25.877000000000002 C -28.478369999999998 -24.345000000000002 -40.68537 -19.14 -43.90837 -1.522000000000002 C -45.15537 5.297999999999998 -44.04537 11.422999999999998 -41.754369999999994 16.749999999999996 z M -39.57837 -0.733 C -36.98637 -14.873000000000001 -27.719369999999998 -19.664 -21.39737 -21.279 C -21.239369999999997 -14.408 -18.36037 -2.0549999999999997 -1.1823699999999988 5.251000000000001 C 3.862630000000001 7.387000000000001 8.800630000000002 8.482000000000001 13.483630000000002 8.492 C 22.35263 8.492 28.600630000000002 4.695 32.28563 1.5060000000000011 C 33.655629999999995 4.899000000000001 34.43463 9.706 32.71863 15.933 C 32.33063 17.339 31.81863 18.815 31.154629999999997 20.366 C 30.267629999999997 22.433 29.124629999999996 24.625999999999998 27.653629999999996 26.951 C 22.398629999999997 35.251000000000005 13.685629999999996 39.456 1.7526299999999964 39.456 C -0.27237000000000355 39.456 -2.2493700000000034 39.329 -4.125370000000004 39.126000000000005 C -5.831370000000003 38.941 -7.449370000000004 38.694 -8.943370000000003 38.418000000000006 C -14.355370000000004 37.419000000000004 -18.103370000000005 36.059000000000005 -18.158370000000005 36.059000000000005 C -18.192370000000004 36.038000000000004 -18.415370000000006 35.906000000000006 -18.767370000000007 35.685 C -19.493370000000006 35.228 -20.821370000000005 34.354 -22.479370000000007 33.099000000000004 C -25.847370000000005 30.551000000000002 -30.548370000000006 26.446000000000005 -34.23937000000001 21.083000000000006 C -35.19037000000001 19.702000000000005 -36.069370000000006 18.237000000000005 -36.844370000000005 16.695000000000007 C -39.381370000000004 11.652000000000008 -40.76937 5.783000000000007 -39.57837000000001 -0.7329999999999934 z M -16.76737 -24.991 L -15.96237 -26.506 L -14.69337 -28.896 C -14.58737 -27.997 -14.43337 -27.104 -14.233369999999999 -26.219 C -14.029369999999998 -25.318 -13.778369999999999 -24.427 -13.481369999999998 -23.548000000000002 C -13.154369999999998 -22.584000000000003 -12.770369999999998 -21.635 -12.335369999999998 -20.706000000000003 C -8.914369999999998 -13.393000000000004 -2.2313699999999983 -7.290000000000003 6.5126300000000015 -4.492000000000004 C 9.79263 -3.4420000000000046 13.155630000000002 -2.9050000000000047 16.505630000000004 -2.9050000000000047 C 20.320630000000005 -2.9050000000000047 23.969630000000002 -3.5950000000000046 27.302630000000004 -4.853000000000005 C 28.195630000000005 -5.189000000000005 29.062630000000006 -5.570000000000005 29.906630000000003 -5.988000000000005 C 30.594630000000002 -6.328000000000005 31.261630000000004 -6.696000000000005 31.914630000000002 -7.0880000000000045 C 32.51663 -7.449000000000004 33.10163 -7.8300000000000045 33.669630000000005 -8.233000000000004 L 32.83863 -6.035000000000004 L 32.474630000000005 -5.071000000000003 C 32.321630000000006 -4.865000000000003 32.03463000000001 -4.501000000000003 31.641630000000006 -4.052000000000003 C 31.245630000000006 -3.598000000000003 30.733630000000005 -3.054000000000003 30.090630000000008 -2.453000000000003 C 27.15263000000001 0.29799999999999693 21.645630000000008 4.068999999999997 13.486630000000009 4.068999999999997 C 9.401630000000008 4.068999999999997 5.0416300000000085 3.093999999999997 0.5446300000000086 1.1849999999999974 C -15.223369999999992 -5.517000000000003 -17.151369999999993 -16.573 -17.05136999999999 -22.023 C -17.034369999999992 -22.942 -16.96136999999999 -23.698999999999998 -16.88536999999999 -24.252 C -16.845369999999992 -24.564999999999998 -16.80136999999999 -24.82 -16.767369999999993 -24.991 z M -6.40337 -43.993 C -2.1523699999999995 -49.671 5.01363 -53.202 13.05763 -53.202 C 15.96063 -53.202 18.87563 -52.75 21.709629999999997 -51.839999999999996 C 34.21563 -47.83 41.81963 -36.05799999999999 39.65362999999999 -24.821999999999996 C 39.51362999999999 -24.093999999999994 39.33062999999999 -23.368999999999996 39.106629999999996 -22.646999999999995 C 39.088629999999995 -22.590999999999994 39.07563 -22.533999999999995 39.057629999999996 -22.477999999999994 C 38.84963 -21.827999999999996 38.600629999999995 -21.197999999999993 38.33063 -20.580999999999996 C 36.19463 -15.689999999999996 32.191629999999996 -11.832999999999997 27.15863 -9.565999999999995 C 26.21163 -9.138999999999996 25.23163 -8.763999999999996 24.21763 -8.453999999999995 C 22.99463 -8.079999999999995 21.72863 -7.790999999999995 20.425629999999998 -7.599999999999995 C 19.148629999999997 -7.4119999999999955 17.837629999999997 -7.313999999999996 16.502629999999996 -7.313999999999996 C 13.599629999999996 -7.313999999999996 10.699629999999996 -7.780999999999995 7.870629999999997 -8.685999999999996 C 2.272629999999997 -10.479999999999997 -2.339370000000004 -13.829999999999997 -5.540370000000003 -17.984999999999996 C -6.333370000000003 -19.014999999999997 -7.040370000000003 -20.093999999999994 -7.652370000000003 -21.211999999999996 C -8.168370000000003 -22.152999999999995 -8.615370000000002 -23.120999999999995 -8.994370000000004 -24.108999999999995 C -10.691370000000003 -28.541999999999994 -10.982370000000003 -33.385999999999996 -9.493370000000004 -38.038 C -9.261370000000005 -38.76499999999999 -8.975370000000003 -39.464 -8.666370000000004 -40.150999999999996 C -8.360370000000005 -40.83 -8.017370000000003 -41.486 -7.641370000000004 -42.123 C -7.259370000000004 -42.769 -6.851370000000004 -43.394999999999996 -6.403370000000004 -43.992999999999995 z M -20.45437 39.786 C -20.25037 39.907000000000004 -16.50137 41.359 -11.57937 42.403 L -17.87237 51.918 L -24.158369999999998 48.793 z M 21.70963 34.79784 L 11.79151 39.126 L -4.92582 40.61392 L -22.479370000000003 34.79784 C -22.479370000000003 34.79784 -44.063370000000006 11.56166 -39.57837000000001 20.312 C -35.09337000000001 29.062350000000002 -28.470370000000006 34.242000000000004 -24.206370000000007 37.308 L -29.780370000000005 50.902 L -16.365370000000006 57.614000000000004 L -6.848370000000006 43.23800000000001 C -4.191370000000006 43.61500000000001 -1.283370000000006 43.873000000000005 1.7526299999999946 43.873000000000005 C 15.097629999999995 43.873000000000005 25.342629999999993 38.83800000000001 31.37662999999999 29.302000000000007 C 33.39862999999999 26.106000000000005 34.87062999999999 23.113000000000007 35.92362999999999 20.312000000000005 z" stroke-linecap="round" />
</g>
</svg>