<?xml version="1.0" encoding="UTF-8" standalone="no" ?>
<!DOCTYPE svg PUBLIC "-//W3C//DTD SVG 1.1//EN" "http://www.w3.org/Graphics/SVG/1.1/DTD/svg11.dtd">
<svg xmlns="http://www.w3.org/2000/svg" xmlns:xlink="http://www.w3.org/1999/xlink" version="1.1" width="47.050389018476075" height="32.55596106184709" viewBox="280.4630381803412 234.64060104910448 47.050389018476075 32.55596106184709" xml:space="preserve">
<desc>Created with Fabric.js 5.3.0</desc>
<defs>
</defs>
<g transform="matrix(0.0920010052 0 0 0.0920010052 303.9882326896 250.91858158)" id="eKQF6k_U6yEBOyrR1yREF"  >
<g style=""   >
		<g transform="matrix(1 0 0 1 -2.646434207 43.5066322486)" id="iYovlUoK3urjRfJ1g30he"  >
<path style="stroke: none; stroke-width: 1; stroke-dasharray: none; stroke-linecap: butt; stroke-dashoffset: 0; stroke-linejoin: miter; stroke-miterlimit: 4; fill: rgb(250,166,26); fill-rule: nonzero; opacity: 1;"  transform=" translate(-295.0504738121, -340.871005472)" d="M 478.891 347.929 L 478.891 347.929 C 464.40000000000003 344.344 453.57 357.202 434.07000000000005 365.50399999999996 C 414.57000000000005 373.80499999999995 378.82000000000005 379.95199999999994 369.86400000000003 380.09399999999994 C 354.36300000000006 380.3399999999999 362.422 405.90899999999993 358.87 412.58799999999997 C 355.705 418.539 347.736 422.01599999999996 341.778 418.86199999999997 C 328.22200000000004 411.688 330.094 379.32399999999996 306.46000000000004 391.61299999999994 C 290.00500000000005 400.1689999999999 287.891 419.65899999999993 295.944 438.45199999999994 C 304.475 458.3589999999999 291.488 473.78599999999994 276.85 473.7969999999999 C 257.35 473.8109999999999 248.00600000000003 460.3909999999999 254.50600000000003 444.54599999999994 C 261.10600000000005 428.4599999999999 258.569 408.79599999999994 242.77700000000004 413.18499999999995 C 231.62000000000003 416.28499999999997 237.44400000000005 438.8589999999999 222.38000000000005 437.1909999999999 C 208.84300000000005 435.6919999999999 218.75700000000006 419.3589999999999 207.38200000000006 414.4839999999999 C 196.00700000000006 409.6089999999999 173.25700000000006 412.04599999999994 167.56900000000007 428.2969999999999 C 163.54400000000007 439.80099999999993 172.44500000000008 457.1409999999999 165.13200000000006 466.8909999999999 C 157.81900000000007 476.6419999999999 144.00700000000006 470.9539999999999 140.75700000000006 462.0169999999999 C 137.50600000000006 453.0789999999999 143.19400000000007 434.3909999999999 135.88200000000006 427.0789999999999 C 128.56900000000007 419.7659999999999 113.42100000000006 410.1339999999999 100.13100000000006 414.0789999999999 C 74.13100000000006 421.7979999999999 82.05300000000005 434.5949999999999 64.38100000000006 433.57999999999987 C 56.229000000000056 433.1109999999999 49.75600000000006 420.5789999999999 44.068000000000055 407.5789999999999 C 38.38000000000005 394.5789999999999 48.943000000000055 381.5789999999999 61.943000000000055 369.3909999999999 C 74.94300000000005 357.2029999999999 111.50600000000006 321.4529999999999 128.56900000000007 299.5149999999999 C 145.63200000000006 277.5769999999999 165.94400000000007 252.38999999999987 174.88200000000006 240.77099999999987 C 183.82000000000005 229.15199999999987 195.75300000000007 207.94499999999988 195.75300000000007 207.94499999999988 C 197.82200000000006 210.16399999999987 200.10300000000007 211.77699999999987 202.50700000000006 212.5779999999999 C 231.75700000000006 222.3279999999999 254.50700000000006 217.4529999999999 270.75700000000006 212.5779999999999 C 290.25700000000006 230.4529999999999 332.50700000000006 243.4529999999999 353.63300000000004 240.7709999999999 C 365.00800000000004 252.7139999999999 382.88300000000004 275.9529999999999 400.75800000000004 279.2029999999999 C 415.384 292.2029999999999 462.509 308.4529999999999 472.259 314.9529999999999 C 478.088 318.839 474.629 334.925 478.891 347.929 z M 511.371 309.842 C 502.282 315.596 495.186 325.131 494.892 335.65 C 494.598 346.169 502.563 356.98699999999997 513.357 358.10999999999996 C 523.5509999999999 359.17199999999997 532.86 351.919 538.346 343.525 C 543.988 334.892 551.5600000000001 315.38199999999995 545.182 305.481 C 538.633 295.315 518.83 305.121 511.371 309.842 z" stroke-linecap="round" />
</g>
		<g transform="matrix(1 0 0 1 10.887467749 -12.6341225529)" id="96CaHyfBG6tMbrsXF6oGg"  >
<path style="stroke: none; stroke-width: 1; stroke-dasharray: none; stroke-linecap: butt; stroke-dashoffset: 0; stroke-linejoin: miter; stroke-miterlimit: 4; fill: rgb(238,163,110); fill-rule: nonzero; opacity: 1;"  transform=" translate(-308.5843757681, -284.7302506704)" d="M 214.354 428.735 C 198.18800000000002 431.44300000000004 181.924 434.08000000000004 166.529 436.50100000000003 C 166.47299999999998 433.543 166.714 430.71700000000004 167.6 428.182 C 173.28799999999998 411.932 196.03799999999998 409.494 207.413 414.369 C 213.788 417.102 213.477 423.433 214.354 428.735 z M 242.808 413.07 C 237.72299999999998 414.483 236.164 419.941 234.54899999999998 425.305 C 242.23699999999997 423.981 249.795 422.656 257.137 421.344 C 255.406 414.807 250.813 410.846 242.808 413.07 z M 306.49 391.499 C 297.01 396.428 292.314 404.994 291.555 414.957 C 309.034 411.564 323.33 408.496 332.049 406.11199999999997 L 332.049 406.11199999999997 C 326.763 395.211 322.416 383.218 306.49 391.499 z M 135.912 426.963 C 128.59900000000002 419.65000000000003 113.45100000000001 410.01800000000003 100.161 413.963 C 74.161 421.682 82.083 434.47900000000004 64.411 433.464 C 64.411 433.464 66.849 447.276 77.81700000000001 448.49399999999997 C 81.525 448.90599999999995 106.57400000000001 445.61899999999997 139.861 440.60799999999995 C 139.748 435.101 138.977 430.029 135.912 426.963 z M 551.914 292.087 C 547.039 257.962 527.937 233.86499999999998 497.062 207.829 C 470.708 185.606 403.66700000000003 149.339 364.624 136.364 C 329.97 124.848 230.16200000000003 108.46100000000001 202.53700000000003 136.08700000000002 C 174.91200000000003 163.71300000000002 185.93300000000005 206.92700000000002 202.53700000000003 212.46200000000002 C 231.78700000000003 222.21200000000002 254.53700000000003 217.33700000000002 270.78700000000003 212.46200000000002 C 290.28700000000003 230.33700000000002 332.53700000000003 243.33700000000002 353.663 240.65500000000003 C 365.038 252.59800000000004 382.913 275.83700000000005 400.788 279.08700000000005 C 415.413 292.08700000000005 462.538 308.33700000000005 472.289 314.83700000000005 C 478.11899999999997 318.72400000000005 474.51599999999996 336.13800000000003 478.92199999999997 347.814 C 462.93699999999995 344.365 453.602 357.08700000000005 434.101 365.38800000000003 C 414.601 373.69000000000005 378.851 379.83700000000005 369.895 379.97900000000004 C 360.66999999999996 380.12500000000006 359.78999999999996 389.23900000000003 359.839 398.00300000000004 C 407.161 383.62600000000003 470.503 362.45500000000004 487.443 360.03200000000004 L 487.443 360.02500000000003 C 491.19 362.728 496.256 364.61100000000005 503.16499999999996 365.21200000000005 C 540.539 368.463 556.789 326.212 551.914 292.087 z M 538.377 343.41 C 532.891 351.80400000000003 523.582 359.05600000000004 513.3889999999999 357.995 C 502.5939999999999 356.872 494.6289999999999 346.05400000000003 494.9229999999999 335.535 C 495.2179999999999 325.016 502.3139999999999 315.48100000000005 511.4019999999999 309.72700000000003 C 518.8609999999999 305.00600000000003 538.6639999999999 295.201 545.2129999999999 305.36600000000004 C 551.591 315.268 544.019 334.777 538.377 343.41 z" stroke-linecap="round" />
</g>
		<g transform="matrix(1 0 0 1 125.9420919809 21.4956267766)" id="1boIBwd-PpMr1LWY8cLMw"  >
<path style="stroke: none; stroke-width: 1; stroke-dasharray: none; stroke-linecap: butt; stroke-dashoffset: 0; stroke-linejoin: miter; stroke-miterlimit: 4; fill: rgb(127,122,67); fill-rule: nonzero; opacity: 1;"  transform=" translate(-423.639, -318.86)" d="M 431.233 318.992 C 431.31 318.75100000000003 431.358 318.504 431.358 318.25100000000003 C 431.358 315.90400000000005 427.903 314.00300000000004 423.639 314.00300000000004 C 419.37600000000003 314.00300000000004 415.92 315.90400000000005 415.92 318.25100000000003 C 415.92 318.475 415.961 318.69100000000003 416.021 318.90500000000003 C 415.971 319.091 415.92 319.276 415.92 319.46900000000005 C 415.92 321.81500000000005 419.37600000000003 323.71700000000004 423.639 323.71700000000004 C 427.903 323.71700000000004 431.358 321.81500000000005 431.358 319.46900000000005 C 431.358 319.26000000000005 431.315 319.12100000000004 431.263 318.9200000000001 C 431.258 318.943 431.24 318.969 431.233 318.992 z" stroke-linecap="round" />
</g>
		<g transform="matrix(1 0 0 1 -40.5599080191 52.1836267766)" id="ptxceQuyA26KAvts0V5kR"  >
<path style="stroke: none; stroke-width: 1; stroke-dasharray: none; stroke-linecap: butt; stroke-dashoffset: 0; stroke-linejoin: miter; stroke-miterlimit: 4; fill: rgb(127,122,67); fill-rule: nonzero; opacity: 1;"  transform=" translate(-257.137, -349.548)" d="M 257.137 344.691 C 252.873 344.691 249.418 346.592 249.418 348.938 C 249.418 349.161 249.458 349.377 249.518 349.591 C 249.469 349.777 249.418 349.963 249.418 350.157 C 249.418 352.50399999999996 252.87300000000002 354.405 257.137 354.405 C 261.399 354.405 264.856 352.50399999999996 264.856 350.157 C 264.856 349.964 264.805 349.777 264.754 349.592 C 264.815 349.378 264.856 349.15999999999997 264.856 348.938 C 264.855 346.593 261.398 344.691 257.137 344.691 z" stroke-linecap="round" />
</g>
		<g transform="matrix(1 0 0 1 -135.3629080191 9.8121267766)" id="D1EZTJK5q9Jx_pQTdB3GW"  >
<path style="stroke: none; stroke-width: 1; stroke-dasharray: none; stroke-linecap: butt; stroke-dashoffset: 0; stroke-linejoin: miter; stroke-miterlimit: 4; fill: rgb(127,122,67); fill-rule: nonzero; opacity: 1;"  transform=" translate(-162.334, -307.1765)" d="M 162.334 302.319 C 158.07 302.319 154.615 304.221 154.615 306.56800000000004 C 154.615 306.79100000000005 154.656 307.00700000000006 154.716 307.22 C 154.666 307.40700000000004 154.615 307.593 154.615 307.785 C 154.615 310.132 158.07000000000002 312.03400000000005 162.334 312.03400000000005 C 166.597 312.03400000000005 170.053 310.13200000000006 170.053 307.785 C 170.053 307.593 170.002 307.40700000000004 169.952 307.221 C 170.012 307.007 170.053 306.79 170.053 306.568 C 170.053 304.222 166.597 302.319 162.334 302.319 z" stroke-linecap="round" />
</g>
		<g transform="matrix(1 0 0 1 -193.7179080191 64.9311267766)" id="WRqgyvT5_r6_Zq9qGghN9"  >
<path style="stroke: none; stroke-width: 1; stroke-dasharray: none; stroke-linecap: butt; stroke-dashoffset: 0; stroke-linejoin: miter; stroke-miterlimit: 4; fill: rgb(127,122,67); fill-rule: nonzero; opacity: 1;"  transform=" translate(-103.979, -362.2955)" d="M 103.979 357.438 C 99.715 357.438 96.26 359.34 96.26 361.687 C 96.26 361.91 96.30000000000001 362.12600000000003 96.36 362.339 C 96.31099999999999 362.526 96.26 362.712 96.26 362.904 C 96.26 365.251 99.715 367.153 103.979 367.153 C 108.241 367.153 111.698 365.25100000000003 111.698 362.904 C 111.698 362.712 111.64699999999999 362.526 111.59599999999999 362.34 C 111.657 362.126 111.698 361.909 111.698 361.68699999999995 C 111.697 359.34 108.24 357.438 103.979 357.438 z" stroke-linecap="round" />
</g>
		<g transform="matrix(1 0 0 1 -33.4504080191 17.2008907405)" id="Y87CeNN4nnAB7yIfsyxoB"  >
<path style="stroke: none; stroke-width: 1; stroke-dasharray: none; stroke-linecap: butt; stroke-dashoffset: 0; stroke-linejoin: miter; stroke-miterlimit: 4; fill: rgb(162,59,66); fill-rule: nonzero; opacity: 1;"  transform=" translate(-264.2465, -314.5652639639)" d="M 188.824 378.041 C 167.025 381.157 147.88600000000002 373.418 146.07600000000002 360.754 C 146.02900000000002 360.42900000000003 145.99500000000003 360.105 145.973 359.779 C 145.959 359.574 145.95700000000002 359.37 145.953 359.165 C 145.95000000000002 359.045 145.941 358.925 145.941 358.80600000000004 C 145.942 358.59400000000005 145.956 358.38300000000004 145.966 358.172 C 145.972 358.059 145.971 357.94500000000005 145.98000000000002 357.83200000000005 C 145.99800000000002 357.5810000000001 146.02900000000002 357.3310000000001 146.06000000000003 357.0810000000001 C 146.06900000000002 357.01000000000005 146.07300000000004 356.9380000000001 146.08200000000002 356.8670000000001 C 146.70600000000002 345.4910000000001 162.14000000000001 334.5100000000001 182.377 331.6170000000001 C 204.115 328.51000000000005 223.154 335.9100000000001 224.904 348.1460000000001 C 224.968 348.5950000000001 225.001 349.0440000000001 225.017 349.4940000000001 L 225.017 349.4930000000001 C 226.806 362.148 210.609 374.927 188.824 378.041 z M 250.655 270.521 C 251.309 262.276 244.208 256.646 237.299 253.848 C 227.72 249.97000000000003 216.75300000000001 249.71300000000002 206.666 251.357 C 198.008 252.768 189.308 255.724 182.137 260.879 C 177.052 264.535 172.037 269.93100000000004 171.746 276.533 C 170.071 284.906 176.172 291.523 183.16 295.004 C 192.158 299.48400000000004 202.863 300.255 212.714 299.098 C 223.676 297.81 235.22 293.968 243.427 286.32300000000004 C 243.43099999999998 286.319 243.43599999999998 286.31500000000005 243.441 286.31100000000004 C 247.771 282.274 251.315 276.671 250.655 270.521 C 250.73 269.573 250.692 270.866 250.655 270.521 z M 382.43 309.303 C 382.428 309.317 382.426 309.329 382.42400000000004 309.343 C 382.499 308.627 382.55100000000004 307.90700000000004 382.55100000000004 307.18100000000004 C 382.55100000000004 288.47 357.19900000000007 273.30000000000007 325.92600000000004 273.30000000000007 C 294.65200000000004 273.30000000000007 269.29900000000004 288.4700000000001 269.29900000000004 307.18100000000004 C 269.29900000000004 307.915 269.35200000000003 308.64300000000003 269.42900000000003 309.36600000000004 C 269.427 309.34600000000006 269.422 309.32700000000006 269.42 309.30600000000004 C 269.348 310.009 269.29900000000004 310.71600000000007 269.29900000000004 311.43000000000006 C 269.29900000000004 330.14200000000005 294.651 345.31100000000004 325.925 345.31100000000004 C 357.199 345.31100000000004 382.552 330.14200000000005 382.552 311.43000000000006 C 382.552 310.715 382.502 310.007 382.43 309.303 z" stroke-linecap="round" />
</g>
		<g transform="matrix(1 0 0 1 -3.6072196872 0.2501563165)" id="Wus3syH1ZLMWFt_x6-POh"  >
<path style="stroke: none; stroke-width: 1; stroke-dasharray: none; stroke-linecap: butt; stroke-dashoffset: 0; stroke-linejoin: miter; stroke-miterlimit: 4; fill: rgb(249,239,230); fill-rule: nonzero; opacity: 1;"  transform=" translate(-294.0896883319, -297.6145295398)" d="M 51.357 392.19 C 51.941 390.834 52.545 389.445 53.562 388.376 C 54.57899999999999 387.30699999999996 56.114999999999995 386.604 57.543 386.97499999999997 C 61.231 387.931 60.97 393.36999999999995 64.096 395.518 C 67.768 398.03999999999996 72.65700000000001 397.49399999999997 77.06400000000001 396.84499999999997 C 87.525 395.30499999999995 98.156 394.71 108.68400000000001 393.758 C 110.25500000000001 393.616 111.88300000000001 393.481 113.37200000000001 394.002 C 114.86100000000002 394.523 116.17600000000002 395.895 116.10100000000001 397.47 C 116.03300000000002 398.908 114.83100000000002 400.09200000000004 113.48300000000002 400.59200000000004 C 106.78500000000003 403.07500000000005 99.00000000000001 402.87000000000006 91.93500000000002 403.61300000000006 C 84.79000000000002 404.36500000000007 60.920000000000016 409.0040000000001 52.81800000000002 402.88400000000007 C 50.037 400.783 49.113 397.416 51.357 392.19 z M 170.097 397.708 C 172.157 397.528 174.649 397.02700000000004 175.303 395.06500000000005 C 175.863 393.38900000000007 174.578 391.54600000000005 172.953 390.85300000000007 C 171.326 390.16100000000006 169.48 390.3140000000001 167.72 390.4800000000001 C 162.356 390.9840000000001 156.933 390.7580000000001 151.557 391.26400000000007 C 146.932 391.69900000000007 137.339 391.25500000000005 134.642 395.79400000000004 C 130.09 403.45400000000006 145.25 399.874 147.593 399.67 C 155.094 399.017 162.596 398.368 170.097 397.708 z M 345.515 360.999 C 347.957 360.702 376.133 359.901 366.786 352.632 C 365.304 351.48 363.26 351.442 361.385 351.556 C 357.753 351.77799999999996 341.836 352.827 340.746 357.77099999999996 C 340.07 360.837 343.116 361.292 345.515 360.999 z M 352.747 400.152 C 350.533 400.388 350.107 404.859 349.89 406.68399999999997 C 349.634 408.823 350.577 411.44399999999996 352.699 411.82099999999997 C 354.69300000000004 412.17499999999995 356.491 410.20599999999996 356.732 408.195 C 356.911 406.705 356.144 401.844 354.711 400.836 C 353.934 400.29 353.288 400.096 352.747 400.152 z M 287.699 445.595 C 284.406 445.39700000000005 282.688 451.824 281.923 454.437 C 281.026 457.5 281.76 461.559 284.767 462.63 C 287.594 463.637 290.704 461.199 291.548 458.32 C 292.175 456.187 292.245 448.899 290.399 447.073 C 289.398 446.086 288.502 445.644 287.699 445.595 z M 160.615 450.731 C 158.03 450.575 156.681 455.623 156.08 457.673 C 155.375 460.078 155.95200000000003 463.267 158.312 464.108 C 160.53300000000002 464.898 162.97400000000002 462.984 163.638 460.723 C 164.13 459.04900000000004 164.185 453.326 162.735 451.892 C 161.951 451.117 161.246 450.77 160.615 450.731 z M 225.911 419.223 C 223.39000000000001 419.071 222.076 423.99 221.49 425.99 C 220.803 428.334 221.365 431.44 223.667 432.261 C 225.83 433.03200000000004 228.209 431.165 228.857 428.96200000000005 C 229.336 427.33000000000004 229.39 421.75300000000004 227.976 420.35600000000005 C 227.212 419.599 226.525 419.26 225.911 419.223 z M 190.578 229.745 C 186.238 231.745 181.615 237.454 183.482 240.746 C 184.625 242.757 187.576 243.059 189.632 242.001 C 193.179 240.178 200.347 231.09300000000002 194.536 229.197 C 193.411 228.829 192.01 229.085 190.578 229.745 z M 518.417 343.395 C 518.538 345.756 520.9780000000001 347.501 523.342 347.56 C 529.196 347.703 542.888 334.419 536.352 329.475 C 531.159 325.547 518.197 339.087 518.417 343.395 z M 195.04 186.568 C 195.379 189.008 195.959 191.506 197.45499999999998 193.464 C 198.95099999999996 195.422 201.56799999999998 196.698 203.92399999999998 195.98 C 206.051 195.333 207.46699999999998 193.24699999999999 208.028 191.096 C 208.589 188.946 208.45999999999998 186.686 208.494 184.464 C 208.602 177.409 210.639 171.034 213.582 164.701 C 215.534 160.50199999999998 219.551 153.451 213.358 150.196 C 198.686 142.482 193.997 179.051 195.04 186.568 z M 228.795 139.454 C 227.428 142.116 224.171 143.74 221.27499999999998 142.988 C 208.84699999999998 139.765 218.54599999999996 131.951 225.30199999999996 131.029 C 229.39 130.472 232.401 132.434 228.795 139.454 z M 504.979 229.648 C 515.079 227.183 530.042 253.309 520.528 255.571 C 518.648 256.018 516.8530000000001 254.684 515.379 253.435 C 511.449 250.104 507.521 246.775 503.59200000000004 243.445 C 499.017 239.567 497.679 231.43 504.979 229.648 z" stroke-linecap="round" />
</g>
		<g transform="matrix(1 0 0 1 10.9604669809 15.6716267766)" id="1CeaduuILomwvqcAeSR_E"  >
<path style="stroke: none; stroke-width: 1; stroke-dasharray: none; stroke-linecap: butt; stroke-dashoffset: 0; stroke-linejoin: miter; stroke-miterlimit: 4; fill: rgb(0,0,0); fill-rule: nonzero; opacity: 0.2;"  transform=" translate(-308.657375, -313.036)" d="M 167.453 428.675 C 167.505 428.51300000000003 167.536 428.341 167.593 428.181 C 173.28099999999998 411.931 196.03099999999998 409.493 207.406 414.368 C 211.57500000000002 416.155 212.881 419.48199999999997 213.53300000000002 423.053 C 198.223 425.315 182.856 427.178 167.453 428.675 z M 328.268 398.533 C 324.039 390.748 318.631 385.271 306.491 391.58500000000004 C 299.389 395.27700000000004 294.97299999999996 401.01200000000006 292.88599999999997 407.84400000000005 C 301.13599999999997 405.88200000000006 309.36799999999994 403.845 317.56199999999995 401.6580000000001 C 321.141 400.702 324.74 399.706 328.268 398.533 z M 138.434 431.069 C 137.846 429.483 137.036 428.086 135.913 426.963 C 128.60000000000002 419.65000000000003 113.45200000000001 410.01800000000003 100.162 413.963 C 74.162 421.682 82.084 434.47900000000004 64.412 433.464 C 64.412 433.464 64.57700000000001 434.383 65.003 435.759 C 84.56 434.51800000000003 104.116 433.278 123.672 432.03700000000003 C 128.592 431.725 133.514 431.404 138.434 431.069 z M 242.808 413.153 C 239.672 414.024 237.882 416.43800000000005 236.588 419.416 C 242.60999999999999 418.371 248.62699999999998 417.29 254.627 416.127 C 252.17 413.009 248.289 411.63 242.808 413.153 z M 423.64 322.529 C 419.757 322.59499999999997 416.574 320.945 416.034 318.89 C 415.98 319.09 415.92199999999997 319.28999999999996 415.92199999999997 319.49899999999997 C 415.92199999999997 321.84499999999997 419.378 323.74699999999996 423.64099999999996 323.74699999999996 C 427.905 323.74699999999996 431.35999999999996 321.84499999999997 431.35999999999996 319.49899999999997 C 431.35999999999996 319.28999999999996 431.31699999999995 319.15099999999995 431.26499999999993 318.95 C 431.05499999999995 319.71299999999997 430.34599999999995 320.608 429.13899999999995 321.262 C 427.783 321.996 425.85 322.491 423.64 322.529 z M 257.137 353.218 C 253.252 353.218 250.071 351.634 249.53 349.579 C 249.477 349.779 249.419 349.979 249.419 350.188 C 249.419 352.53499999999997 252.87400000000002 354.436 257.13800000000003 354.436 C 261.40000000000003 354.436 264.857 352.53499999999997 264.857 350.188 C 264.857 349.979 264.798 349.779 264.745 349.579 C 264.201 351.634 261.02 353.218 257.137 353.218 z M 162.334 310.847 C 158.45000000000002 310.847 155.268 309.262 154.727 307.207 C 154.674 307.408 154.616 307.608 154.616 307.816 C 154.616 310.16299999999995 158.07100000000003 312.065 162.335 312.065 C 166.598 312.065 170.054 310.163 170.054 307.816 C 170.054 307.60799999999995 169.995 307.40799999999996 169.943 307.207 C 169.4 309.262 166.218 310.847 162.334 310.847 z M 103.979 365.935 C 100.095 365.935 96.913 364.351 96.372 362.296 C 96.319 362.496 96.261 362.69599999999997 96.261 362.905 C 96.261 365.251 99.717 367.15299999999996 103.97999999999999 367.15299999999996 C 108.24399999999999 367.15299999999996 111.69899999999998 365.251 111.69899999999998 362.905 C 111.69899999999998 362.69599999999997 111.63999999999999 362.496 111.58799999999998 362.296 C 111.045 364.351 107.862 365.935 103.979 365.935 z M 145.953 358.109 C 145.953 358.116 145.953 358.123 145.954 358.13 C 145.953 358.123 145.953 358.116 145.953 358.109 C 145.969 358.53999999999996 146.005 358.969 146.066 359.4 C 147.816 371.635 166.857 379.036 188.594 375.92699999999996 C 209.534 372.93399999999997 225.332 361.282 224.89999999999998 349.49299999999994 C 224.88299999999998 349.0439999999999 224.85099999999997 348.5949999999999 224.78699999999998 348.1449999999999 C 223.03699999999998 335.90899999999993 203.998 328.5079999999999 182.26 331.61599999999993 C 162.023 334.5089999999999 146.589 345.48999999999995 145.96499999999997 356.86599999999993 C 145.95499999999998 356.93699999999995 145.95099999999996 357.0089999999999 145.94299999999998 357.0799999999999 C 145.95199999999997 357.0039999999999 145.957 356.9269999999999 145.96699999999998 356.8499999999999 C 145.943 357.27 145.938 357.689 145.953 358.109 z M 171.639 276.462 C 171.627 276.52 171.622 276.578 171.61200000000002 276.63599999999997 C 171.61800000000002 276.602 171.621 276.568 171.62800000000001 276.53299999999996 C 172.132 265.10799999999995 187.61200000000002 254.04999999999995 207.93400000000003 251.14399999999995 C 229.67100000000002 248.03599999999994 248.71200000000002 255.43599999999995 250.461 267.67199999999997 C 250.597 268.621 250.61200000000002 269.57199999999995 250.537 270.52 C 250.532 270.47999999999996 250.53300000000002 270.43899999999996 250.52800000000002 270.399 C 249.741 281.706 234.39100000000002 292.579 214.26800000000003 295.456 C 192.52900000000002 298.56300000000005 173.48900000000003 291.163 171.74100000000004 278.927 C 171.623 278.104 171.599 277.283 171.639 276.462 z M 269.31 309.365 C 269.233 308.642 269.18 307.915 269.18 307.18 C 269.18 288.469 294.533 273.299 325.807 273.299 C 357.08000000000004 273.299 382.432 288.469 382.432 307.17999999999995 C 382.432 307.9069999999999 382.38 308.626 382.305 309.3419999999999 C 382.307 309.3279999999999 382.309 309.3159999999999 382.311 309.3019999999999 C 380.479 327.0249999999999 355.88899999999995 341.0619999999999 325.80699999999996 341.0619999999999 C 295.761 341.063 271.193 327.058 269.31 309.365 z M 503.309 365.034 C 496.401 364.433 491.334 362.551 487.58700000000005 359.847 L 487.58700000000005 359.854 C 470.648 362.277 407.30600000000004 383.448 359.98300000000006 397.825 C 359.93300000000005 389.06 360.8140000000001 379.947 370.03900000000004 379.801 C 378.99500000000006 379.659 414.74500000000006 373.512 434.24500000000006 365.21 C 453.74600000000004 356.909 462.93600000000004 344.365 478.9220000000001 347.81399999999996 C 474.7300000000001 336.251 478.1190000000001 318.724 472.2890000000001 314.837 C 462.5380000000001 308.337 415.3820000000001 292.20099999999996 400.7570000000001 279.20099999999996 C 382.8820000000001 275.95099999999996 365.0070000000001 252.71199999999996 353.6320000000001 240.76899999999995 C 332.50600000000014 243.45099999999994 290.25600000000014 230.45099999999994 270.7560000000001 212.57599999999994 C 254.50600000000009 217.45199999999994 231.75600000000009 222.32599999999994 202.50600000000009 212.57599999999994 C 195.7330000000001 210.31799999999993 189.50000000000009 201.04099999999994 187.39700000000008 190.31299999999993 C 216.6020000000001 209.02899999999994 256.59600000000006 209.28799999999993 286.0370000000001 190.94099999999992 C 301.9520000000001 217.4919999999999 339.4690000000001 228.38499999999993 367.1290000000001 214.48799999999991 C 389.1070000000001 268.72399999999993 445.9990000000001 306.83399999999995 504.51900000000006 306.5179999999999 C 514.8230000000001 306.4629999999999 531.0300000000001 298.9749999999999 533.629 289.00299999999993 C 536.229 279.0319999999999 542.9110000000001 269.4849999999999 534.073 246.31299999999993 C 543.486 259.98099999999994 549.595 274.66299999999995 552.059 291.9079999999999 C 556.934 326.033 540.684 368.284 503.309 365.034 z M 545.357 305.188 C 538.808 295.02299999999997 519.005 304.829 511.546 309.549 C 502.457 315.303 495.361 324.83799999999997 495.067 335.35699999999997 C 494.773 345.876 502.738 356.69399999999996 513.533 357.81699999999995 C 523.726 358.87899999999996 533.035 351.626 538.521 343.23199999999997 C 544.163 334.599 551.735 315.089 545.357 305.188 z M 472.273 314.844 C 462.523 308.344 415.398 292.094 400.77200000000005 279.094 C 382.89700000000005 275.844 365.02200000000005 252.605 353.64700000000005 240.66199999999998 C 332.5210000000001 243.34399999999997 290.2710000000001 230.34399999999997 270.7710000000001 212.46899999999997 C 254.52100000000007 217.34399999999997 231.77100000000007 222.21899999999997 202.52100000000007 212.46899999999997 C 200.11700000000008 211.66799999999998 197.83600000000007 210.05499999999998 195.76700000000008 207.83599999999996 C 195.76700000000008 207.83599999999996 193.3530000000001 212.12299999999996 189.8930000000001 217.88499999999996 C 196.71900000000008 221.38199999999995 204.0010000000001 225.25799999999995 208.1810000000001 226.55899999999997 C 226.7690000000001 232.34699999999998 254.2270000000001 230.37899999999996 269.2380000000001 232.24699999999996 C 291.54000000000013 246.05999999999995 320.7330000000001 255.27399999999994 347.4710000000001 255.27399999999994 C 358.1080000000001 269.67199999999997 378.42000000000013 283.11999999999995 397.1130000000001 289.3449999999999 C 408.12400000000014 299.3539999999999 444.3000000000001 316.3379999999999 443.42200000000014 331.1919999999999 C 441.39800000000014 365.3969999999999 369.80900000000014 379.0399999999999 370.05700000000013 379.9809999999999 C 379.28000000000014 379.76799999999986 414.7520000000001 373.7619999999999 434.08500000000015 365.3969999999999 C 453.09400000000016 357.17199999999985 463.2810000000002 344.26599999999985 478.9060000000002 347.82099999999986 C 474.645 334.816 478.104 318.73 472.273 314.844 z M 545.447 305.58 C 545.362 305.436 545.302 305.276 545.213 305.137 C 538.664 294.972 518.861 304.778 511.402 309.498 C 502.313 315.252 495.217 324.787 494.923 335.306 C 494.811 339.33799999999997 495.92 343.411 497.93 346.96799999999996 C 498.607 335.11199999999997 504.099 323.503 513.158 315.78 C 521.981 308.256 533.913 304.647 545.447 305.58 z M 255.205 274.83 C 254.726 271.47499999999997 252.947 268.502 250.17000000000002 265.991 C 250.33 266.553 250.45000000000002 267.116 250.53400000000002 267.7 C 250.53500000000003 267.70799999999997 250.53400000000002 267.717 250.53400000000002 267.72499999999997 C 250.662 268.62499999999994 250.66400000000002 269.52599999999995 250.60100000000003 270.424 L 250.60100000000003 270.42499999999995 C 252.06700000000004 283.11499999999995 235.99400000000003 295.80999999999995 214.38500000000002 298.9 C 200.50500000000002 300.885 187.716 298.414 179.75900000000001 293.06399999999996 C 186.36100000000002 300.94199999999995 201.824 305.06999999999994 219.013 302.61299999999994 C 240.75 299.505 256.955 287.066 255.205 274.83 z M 376.55 292.064 C 380.358 296.619 382.50600000000003 301.76800000000003 382.50600000000003 307.207 C 382.50600000000003 307.924 382.47200000000004 308.61 382.399 309.316 C 382.473 310.022 382.50600000000003 310.738 382.50600000000003 311.45599999999996 C 382.50600000000003 330.16799999999995 357.15400000000005 345.337 325.88100000000003 345.337 C 313.13800000000003 345.337 301.41900000000004 342.788 291.956 338.538 C 302.72900000000004 344.11400000000003 317.697 347.09700000000004 334.07 346.064 C 365.49899999999997 344.082 390.07099999999997 328.13300000000004 388.956 310.44300000000004 C 388.504 303.293 383.923 296.951 376.55 292.064 z M 223.869 344.731 C 224.464 346.19599999999997 224.709 347.106 224.861 348.17199999999997 C 224.914 348.53599999999994 224.99099999999999 349.181 224.971 349.49399999999997 C 226.78300000000002 362.157 210.578 374.95 188.779 378.066 C 178.769 379.498 169.343 378.61699999999996 161.877 376.044 C 169.345 379.316 179.05800000000002 381.031 189.644 380.363 C 212.138 378.944 229.727 367.53 228.92700000000002 354.868 C 228.691 351.135 226.879 347.669 223.869 344.731 z M 430.412 316.241 C 431.039 316.854 431.358 317.526 431.358 318.28 C 431.358 318.662 431.218 319.118 431.263 318.95099999999996 C 431.316 319.152 431.358 319.29099999999994 431.358 319.49999999999994 C 431.358 321.84599999999995 427.904 323.74799999999993 423.639 323.74799999999993 C 421.874 323.74799999999993 420.077 323.4049999999999 418.661 322.7459999999999 C 420.028 324.2849999999999 422.874 325.1389999999999 426.216 324.92799999999994 C 430.726 324.64399999999995 434.252 322.35499999999996 434.092 319.8159999999999 C 433.993 318.235 432.621 316.932 430.412 316.241 z M 264.845 350.216 C 264.81600000000003 352.54900000000004 261.38000000000005 354.437 257.136 354.437 C 253.10200000000003 354.437 249.889 352.714 249.54700000000003 350.54200000000003 C 249.53500000000003 350.615 249.50600000000003 350.68600000000004 249.50600000000003 350.761 C 249.50600000000003 353.107 252.96300000000002 355.009 257.22700000000003 355.009 C 261.48900000000003 355.009 264.946 353.107 264.946 350.761 C 264.945 350.574 264.893 350.395 264.845 350.216 z M 103.979 367.153 C 100.032 367.153 97.163 365.583 96.339 363.622 C 96.28699999999999 363.82300000000004 96.26 363.791 96.26 364 C 96.26 366.346 99.717 368.248 103.979 368.248 C 108.243 368.248 111.698 366.346 111.698 364 C 111.698 363.791 111.619 363.491 111.619 363.491 C 111.132 365.503 107.928 367.153 103.979 367.153 z M 170.053 308.067 C 169.881 310.257 166.513 312.128 162.334 312.128 C 158.805 312.128 156.098 310.865 154.961 309.14099999999996 C 154.961 311.48799999999994 158.441 313.4 162.704 313.4 C 166.967 313.4 170.423 311.498 170.423 309.15099999999995 C 170.423 308.746 170.246 308.438 170.053 308.067 z" stroke-linecap="round" />
</g>
		<g transform="matrix(1 0 0 1 -34.725126126 16.2466837297)" id="OeOUkkj5zHiR4ff_BfeqS"  >
<path style="stroke: none; stroke-width: 1; stroke-dasharray: none; stroke-linecap: butt; stroke-dashoffset: 0; stroke-linejoin: miter; stroke-miterlimit: 4; fill: rgb(162,59,66); fill-rule: nonzero; opacity: 1;"  transform=" translate(-262.9717818931, -313.6110569531)" d="M 332.096 287.667 C 332.096 290.015 335.551 291.916 339.815 291.916 C 344.078 291.916 347.534 290.015 347.534 287.667 C 347.534 285.32099999999997 344.078 283.41999999999996 339.815 283.41999999999996 C 335.551 283.42 332.096 285.321 332.096 287.667 z M 321.326 296.101 C 321.305 297.498 323.35 298.661 325.889 298.697 C 328.42900000000003 298.732 330.502 297.627 330.523 296.229 C 330.543 294.832 328.50100000000003 293.669 325.96000000000004 293.63399999999996 C 323.42 293.598 321.345 294.702 321.326 296.101 z M 289.58 301.228 C 292.118 301.26300000000003 294.193 300.159 294.21299999999997 298.761 C 294.23299999999995 297.36300000000006 292.18999999999994 296.20000000000005 289.65 296.165 C 287.11 296.13 285.036 297.23400000000004 285.01599999999996 298.632 C 284.9959999999999 300.03 287.039 301.192 289.58 301.228 z M 303.121 314.007 C 303.121 311.66 299.66499999999996 309.758 295.402 309.758 C 291.14 309.758 287.68399999999997 311.65999999999997 287.68399999999997 314.007 C 287.68399999999997 316.353 291.14 318.254 295.402 318.254 C 299.665 318.254 303.121 316.353 303.121 314.007 z M 307.039 296.165 C 311.301 296.165 314.756 294.26300000000003 314.756 291.916 C 314.756 289.57 311.301 287.667 307.039 287.667 C 302.774 287.667 299.318 289.57 299.318 291.916 C 299.318 294.263 302.774 296.165 307.039 296.165 z M 319.356 325.145 C 319.376 323.74699999999996 317.331 322.584 314.793 322.549 C 312.252 322.51399999999995 310.178 323.61699999999996 310.158 325.01599999999996 C 310.13800000000003 326.41499999999996 312.18 327.57599999999996 314.721 327.61199999999997 C 317.262 327.646 319.337 326.542 319.356 325.145 z M 333.643 311.43 C 333.643 309.083 330.18899999999996 307.181 325.926 307.181 C 321.662 307.181 318.205 309.08299999999997 318.205 311.43 C 318.205 313.776 321.662 315.678 325.926 315.678 C 330.188 315.678 333.643 313.775 333.643 311.43 z M 349.082 325.08 C 349.082 322.733 345.625 320.83099999999996 341.363 320.83099999999996 C 337.099 320.83099999999996 333.642 322.73299999999995 333.642 325.08 C 333.642 327.426 337.099 329.328 341.363 329.328 C 345.625 329.328 349.082 327.426 349.082 325.08 z M 362.97 307.181 C 362.97 304.835 359.514 302.933 355.252 302.933 C 350.988 302.933 347.533 304.835 347.533 307.181 C 347.533 309.52799999999996 350.988 311.43 355.252 311.43 C 359.514 311.43 362.97 309.527 362.97 307.181 z M 369.274 293.696 C 369.294 292.29900000000004 367.251 291.136 364.71 291.101 C 362.17199999999997 291.065 360.097 292.17 360.077 293.567 C 360.057 294.96500000000003 362.099 296.128 364.64 296.164 C 367.18 296.198 369.255 295.095 369.274 293.696 z M 191.173 285.082 C 186.967 285.775 183.248 284.46 182.867 282.145 C 182.48399999999998 279.83 185.58599999999998 277.39099999999996 189.791 276.698 C 193.99699999999999 276.005 197.71699999999998 277.31899999999996 198.099 279.635 C 198.481 281.951 195.38 284.388 191.173 285.082 z M 196.458 269.834 C 193.328 270.35 190.562 269.372 190.277 267.649 C 189.994 265.927 192.29899999999998 264.114 195.42899999999997 263.598 C 198.55699999999996 263.082 201.32399999999998 264.06 201.60699999999997 265.78200000000004 C 201.892 267.505 199.586 269.318 196.458 269.834 z M 213.869 255.716 C 217.096 255.184 219.95 256.193 220.244 257.969 C 220.535 259.745 218.157 261.616 214.929 262.149 C 211.701 262.681 208.848 261.672 208.555 259.896 C 208.262 258.118 210.641 256.247 213.869 255.716 z M 208.267 269.293 C 207.97299999999998 267.517 210.35399999999998 265.646 213.581 265.113 C 216.809 264.582 219.66199999999998 265.591 219.956 267.366 C 220.248 269.143 217.869 271.014 214.641 271.546 C 211.414 272.078 208.561 271.069 208.267 269.293 z M 218.147 283.965 C 214.599 284.54999999999995 211.462 283.44199999999995 211.142 281.489 C 210.82 279.536 213.435 277.479 216.982 276.895 C 220.529 276.31 223.665 277.418 223.988 279.37199999999996 C 224.309 281.323 221.694 283.38 218.147 283.965 z M 229.017 264.934 C 228.789 263.55400000000003 230.637 262.101 233.142 261.689 C 235.649 261.27500000000003 237.86599999999999 262.05800000000005 238.093 263.437 C 238.321 264.818 236.47299999999998 266.271 233.96599999999998 266.684 C 231.461 267.097 229.244 266.313 229.017 264.934 z M 235.005 279.011 C 232.5 279.425 230.283 278.641 230.05599999999998 277.261 C 229.82899999999998 275.882 231.676 274.42900000000003 234.182 274.016 C 236.69 273.603 238.905 274.386 239.13199999999998 275.766 C 239.359 277.145 237.512 278.599 235.005 279.011 z M 162.895 365.398 C 159.75400000000002 365.91700000000003 156.978 364.934 156.693 363.206 C 156.40900000000002 361.478 158.723 359.65700000000004 161.863 359.14000000000004 C 165.005 358.62200000000007 167.782 359.60400000000004 168.067 361.33200000000005 C 168.352 363.06000000000006 166.035 364.881 162.895 365.398 z M 166.457 342.364 C 166.172 340.635 168.486 338.815 171.62699999999998 338.298 C 174.76799999999997 337.781 177.545 338.762 177.82899999999998 340.489 C 178.11399999999998 342.21799999999996 175.79999999999998 344.039 172.659 344.556 C 169.518 345.073 166.742 344.093 166.457 342.364 z M 171.122 352.716 C 170.828 350.94 173.20800000000003 349.069 176.435 348.536 C 179.662 348.004 182.517 349.014 182.81 350.789 C 183.101 352.565 180.724 354.437 177.495 354.969 C 174.268 355.501 171.414 354.492 171.122 352.716 z M 185.252 371.487 C 181.60000000000002 372.09000000000003 178.369 370.94800000000004 178.03900000000002 368.93800000000005 C 177.70700000000002 366.927 180.4 364.81000000000006 184.05300000000003 364.20900000000006 C 187.70400000000004 363.60600000000005 190.93500000000003 364.74800000000005 191.26600000000002 366.75800000000004 C 191.598 368.769 188.904 370.886 185.252 371.487 z M 186.122 347.687 C 185.822 345.867 188.262 343.94800000000004 191.57000000000002 343.402 C 194.88000000000002 342.85699999999997 197.80400000000003 343.89099999999996 198.10500000000002 345.71299999999997 C 198.40400000000002 347.534 195.96500000000003 349.45199999999994 192.656 349.99699999999996 C 189.348 350.542 186.422 349.508 186.122 347.687 z M 203.064 363.589 C 198.85899999999998 364.282 195.138 362.967 194.757 360.652 C 194.376 358.337 197.476 355.89799999999997 201.683 355.205 C 205.89 354.512 209.60899999999998 355.827 209.98999999999998 358.142 C 210.37099999999998 360.457 207.271 362.896 203.064 363.589 z M 210.551 346.473 C 207.32399999999998 347.004 204.47099999999998 345.99600000000004 204.178 344.219 C 203.885 342.444 206.264 340.573 209.49099999999999 340.04 C 212.719 339.507 215.57399999999998 340.517 215.867 342.293 C 216.158 344.069 213.78 345.94 210.551 346.473 z" stroke-linecap="round" />
</g>
</g>
</g>
</svg>